<?xml version="1.0" standalone="no"?>
<!DOCTYPE svg PUBLIC "-//W3C//DTD SVG 1.1//EN" "http://www.w3.org/Graphics/SVG/1.1/DTD/svg11.dtd" >
<svg>
<metadata>
Created by FontForge 20090914 at Wed Sep 16 21:34:28 2015
 By www-data
copyright missing
</metadata>
<defs>
<font id="HC7Craft-Medium" horiz-adv-x="577" >
  <font-face 
    font-family="HC7 Craft Medium"
    font-weight="400"
    font-stretch="normal"
    units-per-em="2048"
    panose-1="0 0 5 0 0 0 0 0 0 0"
    ascent="1638"
    descent="-410"
    x-height="1303"
    cap-height="1315"
    bbox="-244 -573 2253 1677"
    underline-thickness="102"
    underline-position="-286"
    unicode-range="U+000D-U+25FC"
  />
<missing-glyph horiz-adv-x="748" 
d="M68 0v1365h544v-1365h-544zM136 68h408v1229h-408v-1229z" />
    <glyph glyph-name=".notdef" horiz-adv-x="748" 
d="M68 0v1365h544v-1365h-544zM136 68h408v1229h-408v-1229z" />
    <glyph glyph-name="uni000D" unicode="&#xd;" horiz-adv-x="0" 
 />
    <glyph glyph-name="space" unicode=" " horiz-adv-x="520" 
 />
    <glyph glyph-name="exclam" unicode="!" horiz-adv-x="466" 
d="M92 1266c23.333 12.667 66.501 27.833 129.501 45.5s115.5 30.5 157.5 38.5l-33 -239.5l-37 -269.5c-9.33301 -70 -18.833 -152 -28.5 -246s-15.834 -177 -18.501 -249l-98 -20zM100.001 155.999c1.33301 4.66699 2.66504 8.82812 3.99805 12.4951s3 7.16699 5 10.5
s3.33301 6 4 8s2.5 4 5.5 6s4.83301 3.5 5.5 4.5s3 2.33301 7 4s6.33301 2.83398 7 3.50098s3.83398 2 9.50098 4s9.16699 3.33301 10.5 4c23.333 12.667 44.833 17.834 64.5 15.501s38.167 -8.66602 55.5 -18.999s30.333 -24.666 39 -42.999s14 -37 16 -56
s-2.16699 -38 -12.5 -57s-26.5 -34.833 -48.5 -47.5c-34.667 -20 -65.167 -25.833 -91.5 -17.5s-48.166 28.5 -65.499 60.5c-18.667 36.667 -23.667 72.334 -15 107.001z" />
    <glyph glyph-name="numbersign" unicode="#" horiz-adv-x="1034" 
d="M23 406l20.001 123.999c13.333 4 79 7 197 9l47 264c-147.333 2 -225.333 5.33301 -234 10l19 125l28 4l72 -2h139c40.667 228.667 65.334 351.667 74.001 369l164 2l-2 -39l-17 -101l-43 -231l168 -2c43.333 232.667 68.666 356.334 75.999 371.001l162 2l-2 -39
l-17 -101l-40 -233h182l-19 -127c-10.667 -3.33301 -72.667 -6 -186 -8l-47 -264c133.333 -2 207.666 -5 222.999 -9l-18 -127l-29 -2h-201l-73 -419h-166c0 33.333 21 173 63 419l-170 2l-74 -421h-165c0 32 21 172.333 63 421zM418.001 538.999h167.999l45 264
c-16 -0.666992 -33.167 -1 -51.5 -1s-39.166 0.166992 -62.499 0.5s-41.333 0.5 -54 0.5z" />
    <glyph glyph-name="dollar" unicode="$" horiz-adv-x="1036" 
d="M119 305l68.9971 13.9961c12 -76 44.5 -134.167 97.5 -174.5s119.5 -59.833 199.5 -58.5h17v422c-67.333 38 -120.666 73.333 -159.999 106c-55.333 44.667 -100.666 98.834 -135.999 162.501s-54.666 129.667 -57.999 198s17 131.833 61 190.5
c43.333 56.667 86.833 95.834 130.5 117.501s92.834 32.5 147.501 32.5v117h84v-121c36.667 -3.33301 76.167 -5.83301 118.5 -7.5s85.5 -1.66699 129.5 0s72.667 6.16699 86 13.5l-28 -320h-29l-27.5 53.5c-11 21.667 -19.167 37.334 -24.5 47.001s-13 21.834 -23 36.501
s-19.5 25.167 -28.5 31.5s-20.5 13.166 -34.5 20.499s-30.167 12.333 -48.5 15s-39.5 4.33398 -63.5 5.00098c-6.66699 2.66699 -15.667 4 -27 4v-450c16.667 -10.667 39.334 -24.334 68.001 -41.001s47 -27.667 55 -33c7.33301 -5.33301 20.166 -15.166 38.499 -29.499
l46.5 -37.5c12.667 -10.667 24.667 -21.667 36 -33c38.667 -44.667 68.167 -92 88.5 -142s30.666 -99.333 30.999 -148s-13.5 -95 -41.5 -139s-69.667 -80 -125 -108c-59.333 -30 -125 -49 -197 -57v-172l-77 -6v172c-75.333 -4 -150.666 3.33301 -225.999 22
c-45.333 16 -72 26.667 -80 32c-12.667 9.33301 -25.334 31.333 -38.001 66l-5 13c-15.333 42.667 -24 104.667 -26 186zM353.997 996.996c2 -14.667 15.167 -38.998 39.5 -72.998s51.5 -64 81.5 -90c7.33301 -7.33301 16.333 -15 27 -23v391
c-54.667 -12.667 -96.5 -38.334 -125.5 -77.001s-36.5 -81.334 -22.5 -128.001zM570.997 95.998c54 14 95.5 38.334 124.5 73.001s38.5 76.167 28.5 124.5s-43 95.166 -99 140.499c-9.33301 6 -27.333 16.333 -54 31v-369z" />
    <glyph glyph-name="ampersand" unicode="&#x26;" horiz-adv-x="1525" 
d="M80 266c-14 82 -3.67285 157.335 30.9941 226.002c25.333 45.333 65.333 93.666 120 144.999s106 90.333 154 117c-2 6 -10.333 17.667 -25 35s-29.334 37 -44.001 59s-28.167 47.667 -40.5 77s-18.166 64.666 -17.499 105.999s9.66699 84.666 27 129.999
c34 85.333 98 140 192 164c82.667 21.333 166.334 15.666 251.001 -17.001c77.333 -30.667 129.666 -75 156.999 -133c20 -42 22.667 -86.333 8 -133c-12 -40 -31.667 -77.333 -59 -112s-53 -61 -77 -79s-52.167 -37.333 -84.5 -58s-52.5 -34.334 -60.5 -41.001l78 -88
c21.333 -35.333 39.166 -62.166 53.499 -80.499s28.833 -34.833 43.5 -49.5s27.334 -28.667 38.001 -42l131 -140c0.666992 0 2 -0.833008 4 -2.5s3 -2.16699 3 -1.5c0.666992 0.666992 1.33398 0.666992 2.00098 0s1.33398 -1.66699 2.00098 -3
s1.33398 -2.33301 2.00098 -3l49 238c2 24 -5.5 49.833 -22.5 77.5s-40.833 46.834 -71.5 57.501c-4.66699 2 -10 4 -16 6s-9.66699 3.33301 -11 4s-3 2.16699 -5 4.5s-3.16699 5 -3.5 8s-0.833008 7.83301 -1.5 14.5h334c8.66699 0 18.667 0.333008 30 1s19.833 1 25.5 1
s12.167 -0.666992 19.5 -2s14.333 -3.66602 21 -6.99902l-23 -28c-0.666992 -0.666992 -6.66699 -1.5 -18 -2.5s-23.5 -4 -36.5 -9s-27 -12.5 -42 -22.5s-29.167 -26.333 -42.5 -49s-23.666 -50.334 -30.999 -83.001c-15.333 -73.333 -29.5 -137.333 -42.5 -192
s-21.167 -89.667 -24.5 -105l94 -79.5c22.667 -18.333 49.334 -37.166 80.001 -56.499s57.334 -31.333 80.001 -36s47.667 -5.16699 75 -1.5s55.333 13.834 84 30.501l25 -41c-40 -44.667 -91.833 -74.334 -155.5 -89.001s-132.167 -11 -205.5 11s-139.333 62.333 -198 121
c-70 -48 -117.667 -78 -143 -90c-104 -49.333 -213.5 -69.333 -328.5 -60s-213.167 49 -294.5 119c-46 40.667 -76 102 -90 184zM290.994 397.002c0 -80 30.999 -149.167 92.999 -207.5s135.333 -87.5 220 -87.5c46.667 0 85.834 7.83301 117.501 23.5
s63.5 42.167 95.5 79.5l-18 20l-226.5 248c-49 56 -93.167 112 -132.5 168c-99.333 -64 -149 -145.333 -149 -244zM413.993 1108c0 -38 20.334 -90.001 61.001 -156.001c10.667 -17.333 32.667 -48 66 -92c56.667 39.333 97 74.833 121 106.5s36 66.5 36 104.5
c0 38.667 -15.833 71.5 -47.5 98.5s-69.5 40.5 -113.5 40.5c-36.667 0 -66.334 -9.66699 -89.001 -29s-34 -43.666 -34 -72.999z" />
    <glyph glyph-name="parenleft" unicode="(" horiz-adv-x="749" 
d="M217 422c0 85.333 11.667 176.833 35 274.5s53.333 183.5 90 257.5c33.333 69.333 77.666 147.833 132.999 235.5s84 133.5 86 137.5l103 -2c-89.333 -166.667 -146.666 -299.667 -171.999 -399c-46.667 -176 -70 -338.667 -70 -488c0 -47.333 10.333 -126 31 -236
s39.667 -199.333 57 -268c10 -40 33.833 -113.667 71.5 -221s58.167 -171.333 61.5 -192l-82 -13c-83.333 120 -156.333 242.333 -219 367c-83.333 172.667 -125 355 -125 547z" />
    <glyph glyph-name="parenright" unicode=")" horiz-adv-x="743" 
d="M86 1315c80.667 -148 136.665 -280.333 167.998 -397c39.333 -152 59 -312.667 59 -482c0 -48.667 -9 -129.167 -27 -241.5s-34.667 -198.166 -50 -257.499c-9.33301 -38.667 -33.166 -111.167 -71.499 -217.5s-59.166 -170.5 -62.499 -192.5l82 -10
c82.667 118 155 238.667 217 362c83.333 170.667 125 351 125 541c0 84 -11.667 174.167 -35 270.5s-53.333 182.166 -90 257.499c-33.333 68.667 -77.833 147 -133.5 235s-84.167 133.333 -85.5 136z" />
    <glyph glyph-name="plus" unicode="+" horiz-adv-x="1052" 
d="M16 424l-0.000976562 160c20.667 6.66699 161.334 10 422.001 10c0 264.667 4.33301 404.667 13 420l159 2l2 -29v-393c266 0 406 -4 420 -12l2 -160l-28 -2h-394l-2 -422h-161c-7.33301 21.333 -11 162 -11 422z" />
    <glyph glyph-name="comma" unicode="," horiz-adv-x="444" 
d="M84 -195c19.333 10 48.6729 35.6719 88.0059 77.0049s57 80 53 116c-30.667 0 -58.667 13.667 -84 41c-1.33301 1.33301 -4 4.33301 -8 9s-6.5 7.66699 -7.5 9s-3.16699 4 -6.5 8s-5.5 6.83301 -6.5 8.5s-2.5 4.5 -4.5 8.5s-3.33301 7.33301 -4 10l-2.5 10
c-1 4 -1.5 8 -1.5 12v13c1.33301 23.333 4.66602 41.166 9.99902 53.499s15.666 25.166 30.999 38.499c30.667 24 62.5 35 95.5 33s62.667 -14.667 89 -38s40.833 -50.333 43.5 -81c3.33301 -60.667 -0.833984 -112.834 -12.501 -156.501s-31.834 -78.834 -60.501 -105.501
s-52.834 -45.667 -72.501 -57s-48.834 -25.333 -87.501 -42c-10 -4.66699 -17.667 -8 -23 -10c-3.33301 0 -6 -0.166992 -8 -0.5s-4 1 -6 4l-5 7.5c-1.33301 2 -2.66602 5 -3.99902 9s-2.33301 7.16699 -3 9.5s-1.33398 5.16602 -2.00098 8.49902z" />
    <glyph glyph-name="hyphen" unicode="-" 
d="M51 483v137.999c12.667 8.66699 92.667 12.334 240 11.001s225 -6 233 -14l2 -135l-14 -6h-35z" />
    <glyph glyph-name="period" unicode="." horiz-adv-x="442" 
d="M106 170c2 8 4.33496 14.665 7.00195 19.998l6.5 13c1.66699 3.33301 4.66699 6.5 9 9.5l9.5 6.5c2 1.33301 6.66699 3.5 14 6.5s12.666 5.5 15.999 7.5c24.667 12.667 47.167 17.667 67.5 15s39.333 -9.5 57 -20.5s31.167 -26 40.5 -45s15 -38.5 17 -58.5
s-2.33301 -40.167 -13 -60.5s-27.334 -37.5 -50.001 -51.5c-38 -19.333 -70.833 -24.166 -98.5 -14.499s-50.167 30.834 -67.5 63.501c-19.333 40 -24.333 76.333 -15 109z" />
    <glyph glyph-name="slash" unicode="/" horiz-adv-x="806" 
d="M66 -47c11.333 39.333 110.167 280.332 296.5 722.999s286.833 675.334 301.5 698.001l100 -41l-16 -43l-46 -108l-538 -1274z" />
    <glyph glyph-name="zero" unicode="0" horiz-adv-x="1048" 
d="M47.5 784c16.333 108.667 46.165 209.668 89.498 303.001c20.667 46 54 88 100 126s96.5 66.5 151.5 85.5s111.833 29.667 170.5 32s111.334 -9.16699 158.001 -34.5c40.667 -22 83.167 -55.667 127.5 -101s75.5 -86 93.5 -122c20 -40 36.5 -100.5 49.5 -181.5
s16.833 -176.5 11.5 -286.5s-23.666 -208 -54.999 -294c-32.667 -90 -84.167 -164.833 -154.5 -224.5s-151.833 -93.834 -244.5 -102.501c-72 -6.66699 -143.5 6.66602 -214.5 39.999s-127.167 80 -168.5 140c-56 81.333 -93.167 177.833 -111.5 289.5
s-19.333 221.834 -3 330.501zM235.999 700.001c0 -97.333 5.33398 -180.333 16.001 -249s22.334 -121.334 35.001 -158.001c18.667 -54.667 55 -108.167 109 -160.5s105 -71.166 153 -56.499c103.333 34 171.666 101.667 204.999 203c26 82.667 43.667 171.334 53 266.001
s8.16602 190.667 -3.50098 288s-34.5 181.333 -68.5 252c-24.667 52 -58.667 92.833 -102 122.5s-86.333 41.5 -129 35.5c-56 -8.66699 -105 -38.834 -147 -90.501s-73 -116.5 -93 -194.5c-18.667 -74.667 -28 -160.667 -28 -258z" />
    <glyph glyph-name="one" unicode="1" horiz-adv-x="1062" 
d="M262 1233c2 4.66699 3.00098 9.3291 3.00098 13.9961c0 2.66699 1 4.33398 3 5.00098s7.33301 1.33398 16 2.00098c6.66699 0 12.334 0.333008 17.001 1c29.333 3.33301 76.333 11 141 23c11.333 2 31.5 6.5 60.5 13.5s55 12.667 78 17s43.167 7.16602 60.5 8.49902
c-3.33301 -81.333 -5.5 -288 -6.5 -620s-0.166992 -501.667 2.5 -509c4.66699 -26.667 10.667 -49.167 18 -67.5s14.666 -32.5 21.999 -42.5s17.666 -18 30.999 -24s25 -9.83301 35 -11.5s25 -3.5 45 -5.5l5 -37h-498l2 31c0.666992 0.666992 7.66699 1.33398 21 2.00098
s27.333 3.33398 42 8.00098s30 12.334 46 23.001s29.167 28.334 39.5 53.001s15.5 54.667 15.5 90v747c0 66 -2 114.167 -6 144.5s-12.333 55.5 -25 75.5c-10 18.667 -23.333 31.667 -40 39s-32.5 10.166 -47.5 8.49902s-30.333 -2 -46 -1s-27.167 5.16699 -34.5 12.5z" />
    <glyph glyph-name="two" unicode="2" horiz-adv-x="1060" 
d="M74 985c1.33301 6 4.49902 19.502 9.49902 40.502s8.66699 36 11 45s6.33301 22.5 12 40.5s11 32.333 16 43s11.5 22.834 19.5 36.501s16.667 25.834 26 36.501c25.333 28.667 67 52.167 125 70.5s114 28.166 168 29.499c86.667 2 157.5 -12 212.5 -42
s104.833 -80 149.5 -150c24 -36 39.5 -82.167 46.5 -138.5s5.83301 -105.833 -3.5 -148.5c-4 -30.667 -8.66699 -54 -14 -70s-15 -37 -29 -63c-25.333 -52 -62.333 -109.167 -111 -171.5s-94.834 -116.333 -138.501 -162l-135.5 -139.5c-46.667 -47.333 -76.667 -79 -90 -95
l383 -6c60.667 6 110.667 26 150 60c6.66699 7.33301 16.167 19.833 28.5 37.5s20.5 28.834 24.5 33.501c3.33301 3.33301 6.16602 6.83301 8.49902 10.5s4.33301 7 6 10s2.83398 5.16699 3.50098 6.5h43l-69 -217c-4.66699 -14.667 -9.66699 -27.167 -15 -37.5
s-12.666 -18.666 -21.999 -24.999s-17.166 -11.333 -23.499 -15s-17.333 -6.33398 -33 -8.00098s-27.5 -2.5 -35.5 -2.5h-45h-23l-440 8l-109 2c-20.667 0.666992 -34 3.83398 -40 9.50098s-12.333 18.167 -19 37.5l301 324c25.333 34 48 66 68 96s40.833 63.667 62.5 101
s39.5 74.166 53.5 110.499s25.667 74.166 35 113.499s13.833 79.666 13.5 120.999s-5.5 82.333 -15.5 123c-8 28.667 -26.333 61 -55 97c-14.667 23.333 -47 43.666 -97 60.999c-48 14 -94.333 17.333 -139 10s-85.667 -23 -123 -47
c-28 -18.667 -47.5 -38.334 -58.5 -59.001s-18.833 -42.5 -23.5 -65.5s-10.667 -40.833 -18 -53.5z" />
    <glyph glyph-name="three" unicode="3" horiz-adv-x="1036" 
d="M41 190l53.002 38.999l125 -75c90 -52 179.833 -69.5 269.5 -52.5s156.167 58.833 199.5 125.5c18.667 30 31 67.333 37 112s3 90 -9 136s-33 82.333 -63 109c-18 16 -35.833 29.833 -53.5 41.5s-32.667 21 -45 28s-29.333 13.667 -51 20s-38.167 10.833 -49.5 13.5
s-32.833 7.16699 -64.5 13.5l-72.5 14.5c32.667 56.667 89.5 137.667 170.5 243s129.5 172.333 145.5 201l-336 6c-25.333 -3.33301 -45.666 -8 -60.999 -14s-26.833 -13.167 -34.5 -21.5s-13.667 -16.666 -18 -24.999s-10.5 -18 -18.5 -29s-18 -20.5 -30 -28.5l-26 12
c11.333 86.667 27.666 148.667 48.999 186c4 6.66699 7.83301 14.167 11.5 22.5s6.5 14.5 8.5 18.5s5 8.16699 9 12.5s9.33301 7.5 16 9.5s15.334 3.66699 26.001 5c47.333 1.33301 84 2.16602 110 2.49902s50.167 0.333008 72.5 0s39 -0.666016 50 -0.999023
s31.333 -1.33301 61 -3s58.834 -3.16699 87.501 -4.5c36 -2.66699 86 -3.5 150 -2.5s105.667 1.16699 125 0.5l-353 -549c35.333 -2.66699 70.166 -8.66699 104.499 -18s68.666 -22.5 102.999 -39.5s65.166 -40.167 92.499 -69.5s47.666 -63 60.999 -101
c28 -82 34 -162.333 18 -241c-11.333 -58.667 -34.333 -109.667 -69 -153s-75.167 -75.833 -121.5 -97.5s-96.333 -37 -150 -46s-105.834 -10.833 -156.501 -5.5s-97.667 15.5 -141 30.5s-77.666 33.833 -102.999 56.5c-7.33301 6.66699 -21.333 17.5 -42 32.5
s-38.5 29.5 -53.5 43.5s-26.167 28 -33.5 42z" />
    <glyph glyph-name="four" unicode="4" horiz-adv-x="1050" 
d="M16 483c12 19.333 26.999 38.0029 44.999 56.0029c4 4.66699 10.333 12.5 19 23.5s16 19.5 22 25.5l549 653c4.66699 5.33301 13.667 13.666 27 24.999c5.33301 6 9.33301 11.167 12 15.5s7 9.66602 13 15.999s17.333 16.833 34 31.5l43 -39l-4 -694l8 -37l84 -2l62 35
c10 6 24.167 16.833 42.5 32.5s33.5 25.834 45.5 30.501l22 -18l-131 -223l-129 6c0 -24.667 0.166992 -52.834 0.5 -84.501s0.5 -55.5 0.5 -71.5s0.166992 -35 0.5 -57s1.33301 -38.167 3 -48.5s3.83398 -22.5 6.50098 -36.5s6.33398 -24 11.001 -30l16 -20.5
c6 -7.66699 13.667 -13.334 23 -17.001s19.666 -7.16699 30.999 -10.5s25 -6.33301 41 -9l2 -37l-475 2l9 31c18 -1.33301 34.833 -1.33301 50.5 0s29.5 4.33301 41.5 9s22.667 14 32 28s17 33 23 57c6 27.333 9.5 76.333 10.5 147s-1.16699 118.667 -6.5 144l-569 2z
M204.999 547.003l213 12l188 -6l15 502c-8 -9.33301 -49 -54 -123 -134s-128.667 -142.667 -164 -188c-17.333 -21.333 -39.5 -53 -66.5 -95s-47.833 -72.333 -62.5 -91z" />
    <glyph glyph-name="five" unicode="5" horiz-adv-x="1062" 
d="M53 223l34.999 37.0059l160 -104c50 -24.667 99.667 -40.334 149 -47.001s94 -4.83398 134 5.49902s76.5 27.666 109.5 51.999s58 55 75 92s27.167 78.833 30.5 125.5s-4.33398 97.667 -23.001 153c-19.333 62 -55.833 112.667 -109.5 152s-113.5 61.666 -179.5 66.999
c-21.333 1.33301 -59 -2.16699 -113 -10.5s-93.333 -10.5 -118 -6.5l28 568c28 -1.33301 85.667 -1.5 173 -0.5s146 1.16699 176 0.5c94.667 -1.33301 154.667 1.66699 180 9s56.666 31.666 93.999 72.999l37 -25c-11.333 -17.333 -20.5 -37.833 -27.5 -61.5
s-12 -43.834 -15 -60.501s-10.667 -32.667 -23 -48s-30.166 -26.333 -53.499 -33c-38.667 -5.33301 -77.667 -6.83301 -117 -4.5s-90.666 6.66602 -153.999 12.999s-104 9.83301 -122 10.5l-23 -355c186 40 352 -7.66699 498 -143c18 -10.667 36.833 -39.5 56.5 -86.5
s32.834 -89.833 39.501 -128.5c12.667 -70 8.83398 -136.667 -11.499 -200s-52.666 -116.666 -96.999 -159.999s-99.333 -76.5 -165 -99.5s-134.834 -31.5 -207.501 -25.5c-146.667 12 -285.334 92.333 -416.001 241z" />
    <glyph glyph-name="six" unicode="6" horiz-adv-x="1056" 
d="M98 383c-28 150.667 -11.668 305.003 48.999 463.003c32.667 84 63.834 149.833 93.501 197.5s73.834 95.834 132.501 144.501l6 6c1.33301 1.33301 2.16602 2.33301 2.49902 3s0.666016 1.16699 0.999023 1.5s0.5 0.666016 0.5 0.999023s0.5 1 1.5 2l4.5 4.5
c12 11.333 25.5 22.166 40.5 32.499s34 21.666 57 33.999s47.667 22.666 74 30.999s57 16 92 23s71.833 10.333 110.5 10s82 -2.83301 130 -7.5v-45l-141 -18l-144 -52c-54.667 -22.667 -108.334 -68.5 -161.001 -137.5s-94 -140.833 -124 -215.5
s-44.667 -136.334 -44 -185.001c10 7.33301 27.667 22.833 53 46.5s49.5 42.334 72.5 56.001s51.167 23.834 84.5 30.501c94.667 17.333 177.334 13.333 248.001 -12c134.667 -46.667 212.667 -170.334 234 -371.001c14.667 -135.333 -51.666 -265.666 -198.999 -390.999
c-40.667 -33.333 -91.5 -53.5 -152.5 -60.5s-117.667 -4.33301 -170 8s-96.5 29.833 -132.5 52.5c-64.667 43.333 -114 93.666 -148 150.999s-57.667 123 -71 197zM269.999 518.003c0 -152 35 -271.331 105 -357.998c32.667 -41.333 68.667 -70.333 108 -87
s77 -20.334 113 -11.001s69.167 27 99.5 53s54.5 61.167 72.5 105.5s27 92.5 27 144.5c0 93.333 -27.333 171.166 -82 233.499s-123 93.5 -205 93.5l-109 -18l-127 -99c-1.33301 -20.667 -2 -39.667 -2 -57z" />
    <glyph glyph-name="seven" unicode="7" horiz-adv-x="1019" 
d="M88 1014c30.667 115.333 55.3408 190.33 74.0078 224.997c5.33301 12 10.666 22 15.999 30s11.666 14.667 18.999 20s13.5 9.33301 18.5 12s13.167 4.5 24.5 5.5s20.666 1.5 27.999 1.5s19.666 -0.166992 36.999 -0.5s31.666 -0.5 42.999 -0.5h258
c41.333 0 92.666 -1.66699 153.999 -5s111 -4.66602 149 -3.99902l-61 -395c-9.33301 -36 -24.333 -109.667 -45 -221s-43.334 -207.666 -68.001 -288.999s-56.667 -153.666 -96 -216.999c-90.667 -146.667 -230.667 -238 -420 -274l-10 43c126.667 62 210 135.667 250 221
c74 158.667 134 369 180 631c5.33301 36.667 17.166 95.167 35.499 175.5s29.833 140.5 34.5 180.5l-342 4c-52.667 2.66699 -98.5 -9 -137.5 -35s-64.167 -61.333 -75.5 -106z" />
    <glyph glyph-name="eight" unicode="8" horiz-adv-x="1056" 
d="M92 298.5c-5.33301 36.333 -1.99707 74.834 10.0029 115.501c7.33301 22 16.5 40 27.5 54s25.833 29.333 44.5 46c27.333 26 63.166 57 107.499 93s78.166 59 101.499 69c-6 12 -34 36.667 -84 74c-47.333 32.667 -86.166 79.5 -116.499 140.5
s-37.166 118.5 -20.499 172.5c15.333 52.667 33.666 95.667 54.999 129s50.166 61.833 86.499 85.5s82 40.167 137 49.5s122.5 12.666 202.5 9.99902c56.667 -8 112 -33.667 166 -77s88.667 -90 104 -140c4 -23.333 6.16699 -46 6.5 -68s-1.33398 -42 -5.00098 -60
s-8.33398 -35 -14.001 -51s-13 -30.833 -22 -44.5s-18.167 -26.167 -27.5 -37.5s-19.833 -21.833 -31.5 -31.5l-32.5 -26c-10 -7.66699 -21 -15 -33 -22s-22.5 -12.833 -31.5 -17.5l-28.5 -15l-12 -6c4.66699 -6.66699 19.667 -17.5 45 -32.5s54.333 -34.167 87 -57.5
s59 -47.666 79 -72.999c29.333 -42 49.333 -90.833 60 -146.5s10.334 -115.5 -0.999023 -179.5c-7.33301 -36.667 -28 -72 -62 -106s-70 -62.333 -108 -85c-43.333 -26 -88.333 -45.5 -135 -58.5s-91.167 -19.667 -133.5 -20s-84.166 4.16699 -125.499 13.5
s-78.5 23.666 -111.5 42.999s-63.333 41.833 -91 67.5s-48.834 55 -63.501 88s-24.667 67.667 -30 104zM270.003 338.001c0 -75.333 28.168 -140.001 84.501 -194.001s123.833 -81 202.5 -81c69.333 0 127 21 173 63s69 94.333 69 157c0 61.333 -15.667 110.333 -47 147
c-18.667 20 -49.834 46.833 -93.501 80.5s-93.167 65.5 -148.5 95.5c-0.666992 0.666992 -2.5 1.83398 -5.5 3.50098s-5.16699 3.16699 -6.5 4.5l-27 13c-70 -43.333 -121 -87.833 -153 -133.5s-48 -97.5 -48 -155.5zM297.004 1083c0 -41.333 7 -76.667 21 -106
s37.667 -55.333 71 -78l199 -125c108 71.333 162 155.333 162 252c0 66 -24.333 121.5 -73 166.5s-108.334 67.5 -179.001 67.5c-59.333 0 -107.666 -16.5 -144.999 -49.5s-56 -75.5 -56 -127.5z" />
    <glyph glyph-name="nine" unicode="9" horiz-adv-x="1046" 
d="M86 908c-0.666992 46 2.50098 84.332 9.50098 114.999s18.333 60.167 34 88.5s30.167 50 43.5 65s29.333 31.167 48 48.5c62.667 56 133.5 91.333 212.5 106s157.833 4.33398 236.5 -30.999c52 -24.667 94.5 -49.667 127.5 -75s62.333 -59 88 -101
s44.5 -92.333 56.5 -151c16.667 -80 21.834 -176 15.501 -288s-23.166 -203.667 -50.499 -275c-38.667 -96.667 -95.834 -181.5 -171.501 -254.5s-164.5 -126.833 -266.5 -161.5c-19.333 -6.66699 -43.5 -11.5 -72.5 -14.5s-53.5 -4.5 -73.5 -4.5s-50.333 0.833008 -91 2.5
s-66.667 2.5 -78 2.5l8 36c24.667 1.33301 45 2.66602 61 3.99902s32.667 3.33301 50 6s30.166 4.5 38.499 5.5s19.666 4 33.999 9s24 8.5 29 10.5s15.333 7.33301 31 16s26.334 14.834 32.001 18.501l40 25.5l48.5 30c135.333 116.667 220 278.667 254 486
c-59.333 -58 -124.833 -99.833 -196.5 -125.5s-139.5 -34 -203.5 -25s-121.333 37.833 -172 86.5s-84.667 113.667 -102 195c-12.667 54 -19.334 104 -20.001 150zM260.001 935.999c0 -103.333 30 -185.999 90 -247.999c50 -52 117.667 -78 203 -78
c62.667 12 102.667 22 120 30s55 33 113 75l2 67c0 132.667 -27.167 243 -81.5 331s-122.5 132 -204.5 132c-70.667 0 -128.667 -28.833 -174 -86.5s-68 -131.834 -68 -222.501z" />
    <glyph glyph-name="colon" unicode=":" horiz-adv-x="442" 
d="M104 80c-16.667 60 -5.33398 105.168 33.999 135.501s84 39.833 134 28.5s79.333 -37.333 88 -78c14.667 -61.333 3.66699 -109 -33 -143s-79.167 -45.333 -127.5 -34s-80.166 41.666 -95.499 90.999zM111 756.501c4 27 15.8369 48.998 35.5039 65.998
s41.167 29.333 64.5 37s48 6.33398 74 -3.99902s47 -29.166 63 -56.499c21.333 -38.667 27.5 -72.167 18.5 -100.5s-30.833 -51.5 -65.5 -69.5c-38 -20.667 -75 -25.667 -111 -15l-16 5.5l-12.5 4.5c-3.66699 1.33301 -6.83398 3.33301 -9.50098 6
s-4.83398 4.5 -6.50098 5.5s-3.66699 3.66699 -6 8s-3.83301 7 -4.5 8s-2.33398 4.5 -5.00098 10.5s-4.33398 10 -5.00098 12c-13.333 28 -18 55.5 -14 82.5z" />
    <glyph glyph-name="equal" unicode="=" horiz-adv-x="1089" 
d="M18 623v170c29.333 8 207.5 11.667 534.5 11s499.833 -5 518.5 -13l2 -168l-31 -5zM20 238l3 165l1046 3l-2 -164c-22.667 -6 -72.667 -9.66699 -150 -11s-147.5 -1.33301 -210.5 0s-118.833 3 -167.5 5c-114.667 1.33301 -287.667 2 -519 2z" />
    <glyph glyph-name="question" unicode="?" horiz-adv-x="755" 
d="M34.5 1037c0.333008 4.66699 1.16797 11.334 2.50098 20.001c2.66699 18 7.33398 42 14.001 72s17.5 64.167 32.5 102.5s30.167 59.833 45.5 64.5c44 15.333 89.167 26.333 135.5 33s93.5 7.66699 141.5 3s91.833 -15.5 131.5 -32.5s74.167 -43.833 103.5 -80.5
s49 -81.334 59 -134.001c12 -67.333 6.66699 -129.166 -16 -185.499s-56.667 -112.5 -102 -168.5c-13.333 -15.333 -39.333 -42.5 -78 -81.5s-70 -74 -94 -105s-42.667 -63.833 -56 -98.5c-2 -5.33301 -5.33301 -15.333 -10 -30s-9 -26.667 -13 -36s-8.66699 -18 -14 -26
l-92 -2c3.33301 44.667 17.5 102.5 42.5 173.5s51.833 136.333 80.5 196l79 166.5c24 51.333 36.667 81.666 38 90.999c18.667 153.333 -33.333 231.666 -156 234.999c-38 1.33301 -71.333 -2.66699 -100 -12s-50.334 -21.666 -65.001 -36.999s-27.5 -31.833 -38.5 -49.5
s-18.833 -34 -23.5 -49s-10 -26.667 -16 -35s-13 -10.833 -21 -7.5c-0.666992 2 -1.66699 3 -3 3h-4c-1.33301 0 -2.33301 0.5 -3 1.5s-0.833984 3.83301 -0.500977 8.5zM170.002 87.5c-4 21 -2.66895 40.6699 3.99805 59.0029s17.334 34.666 32.001 48.999
s31 24.666 49 30.999s37.667 7.16602 59 2.49902s41 -16 59 -34c36.667 -36 47.667 -77 33 -123s-42.167 -73.833 -82.5 -83.5s-81.166 3.83301 -122.499 40.5c-16.667 18 -27 37.5 -31 58.5z" />
    <glyph glyph-name="at" unicode="@" horiz-adv-x="1576" 
d="M84 653.5c1.33301 133 37.6777 254.501 109.011 364.501c11.333 17.333 37.666 51.333 78.999 102c5.33301 8 12.166 15.833 20.499 23.5s15.166 15.5 20.499 23.5c8 9.33301 15.5 17.666 22.5 24.999s14.5 14.333 22.5 21l19 15.5
c4.66699 3.66699 12.167 8.66699 22.5 15l21.5 13c4 2.33301 13.167 7.33301 27.5 15l30.5 16.5c83.333 43.333 169.166 72.5 257.499 87.5s179 12.5 272 -7.5s176.833 -59.667 251.5 -119c52.667 -44.667 93 -84.667 121 -120s54.333 -83.333 79 -144
c21.333 -51.333 37 -107.333 47 -168s11.833 -122.834 5.5 -186.501s-20.833 -121.5 -43.5 -173.5s-59.334 -95 -110.001 -129s-112.334 -52 -185.001 -54c-24 -0.666992 -45 0.833008 -63 4.5s-35.167 11.5 -51.5 23.5s-28.5 21.833 -36.5 29.5s-21 22.334 -39 44.001
s-30.667 36.5 -38 44.5c-16.667 -26.667 -33.834 -47.5 -51.501 -62.5s-44.834 -30.5 -81.501 -46.5c-41.333 -18.667 -85.333 -26.667 -132 -24s-89.167 16.834 -127.5 42.501s-66 64 -83 115s-16.833 115.167 0.5 192.5c16 68 47 132.333 93 193s93 106.834 141 138.501
s88 46.834 120 45.501l181 -45l20 45l109 6c2 -5.33301 3 -10.833 3 -16.5s-0.333008 -10.167 -1 -13.5s-2.33398 -9.16602 -5.00098 -17.499l-6 -18.5c-1.33301 -8 -7.16602 -39.167 -17.499 -93.5s-17.833 -97 -22.5 -128s-9.33398 -69.833 -14.001 -116.5
s-5.16699 -86 -1.5 -118s11.5 -56.667 23.5 -74c6 -11.333 21.667 -23.166 47 -35.499s48.333 -18.833 69 -19.5c78 -0.666992 136.5 26.666 175.5 81.999s55.833 126.333 50.5 213c-6 124.667 -36.167 238.834 -90.5 342.501s-124.5 177.834 -210.5 222.501
c-103.333 50.667 -208.666 72.167 -315.999 64.5s-208.833 -38.834 -304.5 -93.501s-172.834 -124.334 -231.501 -209.001c-52.667 -78 -83.167 -165.667 -91.5 -263s6.5 -193.333 44.5 -288c45.333 -114.667 123 -211.334 233 -290.001
c44 -30.667 82.333 -51.334 115 -62.001c66.667 -26.667 127.667 -45.667 183 -57s102.833 -15.5 142.5 -12.5s73.5 7.83301 101.5 14.5s56.667 15.167 86 25.5s52.666 16.833 69.999 19.5l17 -33c-4 -2 -9 -6 -15 -12c-44 -33.333 -100.833 -57.5 -170.5 -72.5
s-138.834 -20.667 -207.501 -17s-131.667 14.167 -189 31.5c-80 25.333 -159.833 68.166 -239.5 128.499s-140.5 124.166 -182.5 191.499c-65.333 106 -97.333 225.5 -96 358.5zM629.012 578.001c0 -46.667 11.334 -84.999 34.001 -114.999s51.667 -45 87 -45
c46.667 0 87.5 21.833 122.5 65.5s57.5 99.5 67.5 167.5l35 240c-22.667 15.333 -41.334 25.666 -56.001 30.999s-32.334 8 -53.001 8c-65.333 0 -121.166 -34.333 -167.499 -103s-69.5 -151.667 -69.5 -249z" />
    <glyph glyph-name="A" unicode="A" horiz-adv-x="1374" 
d="M-8 57c24.667 5.33301 47.333 14.3301 68 26.9971s38.167 26 52.5 40s28.5 32.5 42.5 55.5s25.167 43.333 33.5 61s18.5 40.5 30.5 68.5l207 512c16.667 42.667 53.334 123.834 110.001 243.501s95 203.834 115 252.501h80
c84.667 -172.667 136.667 -281.334 156 -326.001l182 -420l170 -370l23.5 -42.5c10.333 -19 17.666 -31.5 21.999 -37.5s11.833 -14 22.5 -24s23.167 -17.333 37.5 -22s32.5 -8.66699 54.5 -12l-4 -53l-498 -10l-27 8l-2 35c48.667 9.33301 81.667 19.333 99 30
c27.333 16.667 41 41.667 41 75c0 17.333 -3.66699 37 -11 59c-8.66699 23.333 -23.834 58.833 -45.501 106.5s-37.834 87.834 -48.501 120.501l-500 -2c-66.667 -150 -100 -249 -100 -297c0 -6.66699 0.666992 -12 2 -16c5.33301 -18 13.333 -31.667 24 -41
s20.834 -14.833 30.501 -16.5s18.334 -5.66699 26.001 -12s11.5 -16.166 11.5 -29.499c-7.33301 -2 -12.333 -3.5 -15 -4.5s-5.5 -1.66699 -8.5 -2s-5 -0.5 -6 -0.5s-3.83301 0.166992 -8.5 0.5s-9.66699 0.5 -15 0.5l-313 -6c-7.33301 -0.666992 -12.666 -1 -15.999 -1
s-6 0.333008 -8 1s-3.33301 1.16699 -4 1.5s-1.83398 1.5 -3.50098 3.5s-3.5 3.66699 -5.5 5zM480.999 550.997l344 -4l-151 371l-31 79z" />
    <glyph glyph-name="B" unicode="B" horiz-adv-x="1128" 
d="M33 1229l1.99512 76.002l133 5c70.667 4 130 6 178 6h18c44 0 94 -1.33301 150 -4c64 -2.66699 118.333 -9.33398 163 -20.001s78.334 -25.667 101.001 -45c41.333 -30.667 77 -67.834 107 -111.501s46.333 -89.167 49 -136.5c0.666992 -8 1 -16 1 -24
c0 -50.667 -11.333 -100 -34 -148c-7.33301 -16.667 -20.166 -39.334 -38.499 -68.001s-29.5 -49 -33.5 -61c64.667 -26.667 112.834 -51.334 144.501 -74.001s57.5 -56 77.5 -100c24 -51.333 36 -106.333 36 -165c0 -52 -9.33301 -106.667 -28 -164
c-34 -108.667 -143.333 -173 -328 -193c-25.333 -3.33301 -68.166 -5.66602 -128.499 -6.99902s-130.166 -2 -209.499 -2s-129 -0.333008 -149 -1h-195l-8 53c6.66699 2.66699 17.167 6.33398 31.5 11.001s24.833 8.66699 31.5 12s15 10 25 20s17.5 22.5 22.5 37.5
s9.5 36.333 13.5 64s6.33301 60.834 7 99.501c2.66699 7.33301 4.66699 77.666 6 210.999v75c0 110 -2 223.667 -6 341c-4 144 -11.333 227.667 -22 251c-3.33301 8 -7 14.833 -11 20.5s-8.83301 10.5 -14.5 14.5s-10.167 7.33301 -13.5 10s-9.33301 5 -18 7l-17.5 4
c-3 0.666992 -10.167 1.66699 -21.5 3s-18.333 2.33301 -21 3zM409.995 236.002c0 -42.667 4.66699 -75.667 14 -99l143 -61c53.333 0 100.666 10 141.999 30c42.667 21.333 74.5 52 95.5 92s31.5 84.667 31.5 134c0 47.333 -10.333 91 -31 131
c-21.333 39.333 -49.333 73.333 -84 102c-41.333 32.667 -83.666 56 -126.999 70l-184 10v-409zM409.995 750.002l234.999 -9.00098c28 22.667 50.667 55 68 97c16 40 24 82.333 24 127c0 48.667 -10.667 93.667 -32 135c-16 36.667 -45 67.334 -87 92.001
c-55.333 14.667 -116.666 22 -183.999 22h-24v-464z" />
    <glyph glyph-name="C" unicode="C" horiz-adv-x="1323" 
d="M127 451c-15.333 69.333 -23.001 137.67 -23.001 205.003c0 141.333 34.333 277 103 407c22 42 52.667 80.167 92 114.5s82.333 62 129 83s96.5 38.167 149.5 51.5s104.833 20 155.5 20s99.334 -3.66699 146.001 -11l64.5 -15c31 -7.33301 57.667 -13 80 -17
s43.5 -6.33301 63.5 -7h14c76 0 129.667 20.333 161 61l20 -376l-57 -4l-19 36c-16 46 -37.833 83.667 -65.5 113s-65.167 56.666 -112.5 81.999c-31.333 17.333 -68.333 28 -111 32c-18.667 2 -36.667 3 -54 3c-23.333 -0.666992 -46.333 -2.33398 -69 -5.00098
c-38.667 -5.33301 -76 -14.666 -112 -27.999c-64.667 -24 -121.667 -64.333 -171 -121c-48.667 -56.667 -85 -120.334 -109 -191.001c-20 -59.333 -30 -118.333 -30 -177c0 -11.333 0.333008 -23 1 -35c8 -106 25.167 -191.5 51.5 -256.5s71.166 -134.5 134.499 -208.5
c18 -22.667 58.333 -51.334 121 -86.001c58.667 -29.333 118 -43.666 178 -42.999c54 0 108.667 11.667 164 35c38.667 16.667 72.5 34.5 101.5 53.5s50 35.5 63 49.5l39 42c13 14 23.5 23.667 31.5 29c1.33301 1.33301 7 4 17 8l-17 -211
c-32 -20.667 -91.167 -42.334 -177.5 -65.001s-156.166 -35.667 -209.499 -39c-14.667 -0.666992 -29.667 -1 -45 -1c-51.333 -0.666992 -107 4.33301 -167 15c-77.333 13.333 -142.333 33 -195 59c-112 52.667 -200.667 128 -266 226c-12.667 17.333 -26.5 44.5 -41.5 81.5
s-24.5 67.167 -28.5 90.5z" />
    <glyph glyph-name="D" unicode="D" horiz-adv-x="1482" 
d="M27 8l-0.00292969 54.999c67.333 24 109.833 48.833 127.5 74.5s27.5 74.834 29.5 147.501c2 36.667 3 86 3 148c-0.666992 11.333 -1 22.333 -1 33v44c0 56.667 0.666992 103 2 139c2 111.333 3 203.666 3 276.999c0 36.667 -0.333008 68.667 -1 96
c-0.666992 33.333 -3 61.333 -7 84s-8.66699 40.167 -14 52.5s-12.833 22.666 -22.5 30.999s-19 14.5 -28 18.5s-20.667 9.5 -35 16.5s-27.166 14.5 -38.499 22.5l4 58c4.66699 3.33301 38 5 100 5h19c74.667 0 116.334 -0.333008 125.001 -1
c15.333 0.666992 48.666 2 99.999 4s86.333 3.16699 105 3.5s49.667 0.5 93 0.5s77.333 -1.16699 102 -3.5s55.334 -5.66602 92.001 -9.99902s70.834 -10.333 102.501 -18s63.5 -17.167 95.5 -28.5c86.667 -29.333 162 -77.666 226 -144.999s115 -146.666 153 -237.999
c18 -44.667 27 -99.667 27 -165c0.666992 -46 -3.66602 -97.333 -12.999 -154c-21.333 -136 -58 -237 -110 -303c-64 -82.667 -162.333 -153.667 -295 -213c-11.333 -4.66699 -23.833 -8.83398 -37.5 -12.501s-26.667 -6.83398 -39 -9.50098s-27.666 -5 -45.999 -7l-45.5 -5
c-12 -1.33301 -28.667 -2.5 -50 -3.5s-37.333 -1.66699 -48 -2s-27.834 -0.666016 -51.501 -0.999023s-39.334 -0.5 -47.001 -0.5h-49h-43.5c-20.667 0 -58.167 -0.333008 -112.5 -1s-99.833 -1 -136.5 -1c-5.33301 0 -10.666 -0.333008 -15.999 -1c-32.667 0 -69 1 -109 3
c-46.667 2 -84.334 5.33301 -113.001 10zM409.997 1010l1.99805 -777.001c-0.666992 -4.66699 -1 -9.33398 -1 -14.001c0.666992 -24.667 9.66699 -46.334 27 -65.001c21.333 -22 49.333 -37.667 84 -47c29.333 -8 61 -12 95 -12c7.33301 0 14.666 0.333008 21.999 1
c35.333 2 83.333 11.667 144 29s97.334 27 110.001 29c82 44 142.667 105.333 182 184c40.667 62.667 62.334 143.334 65.001 242.001c0 8.66699 0.333008 17.334 1 26.001c0 89.333 -14.333 176.666 -43 261.999c-31.333 76.667 -76.333 142.334 -135 197.001
c-40 36 -79 64 -117 84c-37.333 20.667 -81.666 36.334 -132.999 47.001l-299 6z" />
    <glyph glyph-name="E" unicode="E" horiz-adv-x="1034" 
d="M33 51c13.333 6.66699 34.1758 14.5039 62.5088 23.5039s49.166 16.833 62.499 23.5c13.333 34.667 22 94 26 178c1.33301 42.667 2 89 2 139c0 70 -1.33301 147.333 -4 232c-1.33301 34.667 -2 72.5 -2 113.5s0.333008 86.833 1 137.5s1 89.334 1 116.001
c0 12.667 0.5 32.667 1.5 60s1.16699 47 0.5 59s-2.33398 26.667 -5.00098 44s-8 30.666 -16 39.999s-18.667 16.666 -32 21.999c-15.333 6.66699 -28.333 11.667 -39 15s-17.5 5.16602 -20.5 5.49902s-5.33301 1.33301 -7 3s-4.16699 5.5 -7.5 11.5l4 44
c236 -6.66699 428 -10.334 576 -11.001c132 0 229 2.66699 291 8l14 -252l-43 -4l-20 41.5c-8 17 -13.667 28.667 -17 35s-8.33301 14.5 -15 24.5s-12.834 16.5 -18.501 19.5s-13.334 6.83301 -23.001 11.5s-20.667 7.66699 -33 9s-27.5 2 -45.5 2
c-62 0 -162.333 1.33301 -301 4v-430c24 -6.66699 45 -10 63 -10c25.333 -2 53.333 -3 84 -3c27.333 0.666992 57 1.66699 89 3c66.667 4 115 15.667 145 35c8 5.33301 14.333 11.166 19 17.499s7.66699 12.5 9 18.5s2.16602 11.333 2.49902 16
s0.166016 9.66699 -0.500977 15s-1 8.33301 -1 9l43 -3l-9 -350l-32 -2c-18.667 76 -61.334 114 -128.001 114c-6.66699 0 -13.334 -0.333008 -20.001 -1c-72.667 3.33301 -133.667 5 -183 5c-24.667 0 -46.334 -0.333008 -65.001 -1v-518l330 6
c82.667 14.667 140 78.667 172 192l39 3l-70 -322h-874z" />
    <glyph glyph-name="F" unicode="F" horiz-adv-x="1007" 
d="M37 1276l5.99414 28.999l897 2l4 -310l-51 -2c-10 49.333 -25.833 92 -47.5 128s-55.167 63 -100.5 81c-25.333 8.66699 -72.333 13 -141 13h-16c-77.333 -0.666992 -127.333 -7 -150 -19l-4 -466l277 -7c66.667 0 111 7.83301 133 23.5s37.667 46.167 47 91.5l49 -9
l-4 -333c-0.666992 -14 -1.5 -22.5 -2.5 -25.5s-4.16699 -7.5 -9.5 -13.5l-37 -6l-53 94c-20.667 23.333 -60.667 39 -120 47c-49.333 6.66699 -94.666 10 -135.999 10h-24c-47.333 -1.33301 -92.666 -4.66602 -135.999 -9.99902l2 -338
c-0.666992 -23.333 -1 -43.666 -1 -60.999c0 -34.667 1 -57.334 3 -68.001c8 -42.667 32 -70.667 72 -84c14 -4.66699 31 -8 51 -10l2 -37l-506 6v39c4.66699 3.33301 22.334 12.666 53.001 27.999s53.334 32 68.001 50c8 9.33301 14.333 28.166 19 56.499
s8 58.666 10 90.999s3 71.333 3 117s-0.333008 83.334 -1 113.001s-1.66699 63.834 -3 102.501s-2 59.667 -2 63c0 4 0.333008 30.667 1 80c0.666992 32.667 1 63.334 1 92.001v40c0 38.667 -1 83.334 -3 134.001s-5.5 93.167 -10.5 127.5s-11.833 57.166 -20.5 68.499
c-13.333 18 -34.166 32 -62.499 42s-47.166 20 -56.499 30z" />
    <glyph glyph-name="G" unicode="G" horiz-adv-x="1509" 
d="M109 682c8 152.667 50.334 277.668 127.001 375.001c36 48.667 79 94.5 129 137.5s98.333 72.167 145 87.5c83.333 27.333 155.333 44.666 216 51.999c26.667 2.66699 52.667 4 78 4c34 0 67.667 -2.66699 101 -8c58 -9.33301 134.667 -28.666 230 -57.999
c31.333 -10 56.666 -15 75.999 -15l2 1c19.333 0 32.166 2.83301 38.499 8.5s13.833 13.667 22.5 24s17.334 17.833 26.001 22.5l-6 -316l-30 -8c-4.66699 -1.33301 -11.334 4.5 -20.001 17.5l-32 48.5c-12.667 19.333 -30.667 39.5 -54 60.5s-51.666 39.167 -84.999 54.5
s-74.666 25.333 -123.999 30c-12 0.666992 -24.667 1 -38 1c-40 0 -85 -5 -135 -15c-55.333 -11.333 -102.333 -26.666 -141 -45.999s-71.5 -44.833 -98.5 -76.5s-48.833 -66.5 -65.5 -104.5s-32.334 -85.333 -47.001 -142c-11.333 -46 -18 -93.667 -20 -143
c-0.666992 -12 -1 -23.667 -1 -35c0 -38.667 3 -77 9 -115c7.33301 -50.667 22 -99.667 44 -147s50.333 -88.333 85 -123c30 -30 71.667 -57.167 125 -81.5s107.333 -42.5 162 -54.5c46 -10 90.333 -15 133 -15c8.66699 0 17 0.333008 25 1c50.667 2 88 12.333 112 31
l-6 316v15c0 54.667 -10.333 95.334 -31 122.001c-10 13.333 -19.5 22.666 -28.5 27.999s-20.167 10 -33.5 14s-25.333 9 -36 15c-0.666992 11.333 -0.833984 19.5 -0.500977 24.5s0.833008 7.83301 1.5 8.5s1.66699 1.16699 3 1.5s2.66602 1.16602 3.99902 2.49902l477 10
v-41l-44 -29.5c-18.667 -12.333 -30.334 -20.166 -35.001 -23.499s-12.167 -10 -22.5 -20s-16.166 -17.667 -17.499 -23s-3.83301 -14.833 -7.5 -28.5s-5.66699 -27.5 -6 -41.5s-0.5 -33 -0.5 -57c0 -26.667 0.833008 -64.834 2.5 -114.501s2.5 -88.167 2.5 -115.5
c0.666992 -2.66699 1 -5.66699 1 -9c0 -26 -1.33301 -61 -4 -105c-11.333 -7.33301 -25.333 -14.333 -42 -21s-32.5 -12.167 -47.5 -16.5s-37.167 -9.33301 -66.5 -15s-53 -10 -71 -13l-90.5 -14.5c-42.333 -6.66699 -75.166 -12 -98.499 -16
c-28.667 -3.33301 -57.667 -5 -87 -5c-70.667 0 -142.667 10.333 -216 31c-104 29.333 -196 73.666 -276 132.999c-48.667 33.333 -89 75 -121 125c-39.333 62.667 -65.666 124 -78.999 184c-9.33301 45.333 -14 100 -14 164c0 20 0.333008 40.667 1 62z" />
    <glyph glyph-name="H" unicode="H" horiz-adv-x="1495" 
d="M33 1251l1.99414 46.9893l516 2l6 -34l-51 -32c-34 -20.667 -54.333 -37.167 -61 -49.5s-11.667 -43.166 -15 -92.499c-0.666992 -13.333 -1.33398 -23.666 -2.00098 -30.999c-2 -39.333 -3.33301 -95.666 -4 -168.999v-35c0 -55.333 1.33301 -96 4 -122
c2 -2 4.5 -3.66699 7.5 -5s5.5 -2 7.5 -2s4.66699 0.166992 8 0.5s5.33301 0.5 6 0.5c9.33301 1.33301 21.666 1.66602 36.999 0.999023h249c14 0 59.667 -1.33301 137 -4c40 -2 74.667 -3 104 -3c26 0 47 0.666992 63 2l-3 354c0 6.66699 0.166992 15.834 0.5 27.501
s0.5 20.834 0.5 27.501s-0.166992 14.834 -0.5 24.501s-1.33301 17.334 -3 23.001s-3.66699 11.834 -6 18.501s-5.66602 12.334 -9.99902 17.001s-9.5 8.66699 -15.5 12c-10.667 6 -26.334 11.333 -47.001 16s-34.834 10.5 -42.501 17.5s-9.5 19.5 -5.5 37.5l525 11l-4 -49
c-12 -5.33301 -25.667 -10.666 -41 -15.999s-26.166 -9.33301 -32.499 -12s-13.5 -7.33398 -21.5 -14.001s-15.333 -16 -22 -28c-11.333 -10.667 -18 -88 -20 -232c-0.666992 -57.333 -1 -114 -1 -170c0 -84 0.666992 -167.333 2 -250
c2.66699 -137.333 5.66699 -227.333 9 -270c2.66699 -68.667 7.66699 -112.667 15 -132c11.333 -30.667 38 -53.334 80 -68.001c15.333 -5.33301 34 -10.333 56 -15v-57l-522 4l-16 51l116 58c14.667 8.66699 23.334 32.334 26.001 71.001
c1.33301 14.667 1.66602 30.667 0.999023 48c0 25.333 -1.33301 52.333 -4 81c-4.66699 47.333 -8.33398 97 -11.001 149c-1.33301 23.333 -2 45 -2 65c0 25.333 1 48.333 3 69c-50.667 -2.66699 -96 -4.66699 -136 -6c-32 -1.33301 -64.667 -2 -98 -2h-25
c-41.333 0 -75 0.333008 -101 1s-67.167 1.83398 -123.5 3.50098s-102.166 2.83398 -137.499 3.50098l8 -307c0 -10.667 -0.333008 -26 -1 -46s-1 -35.5 -1 -46.5s0.5 -24.333 1.5 -40s3.83301 -28 8.5 -37s10.834 -17.833 18.501 -26.5s18.334 -14.834 32.001 -18.501
s29.834 -5.16699 48.501 -4.5v-58l-494 -2l-10 45c44 8.66699 77 32 99 70c20 34.667 30 88.667 30 162v20c1.33301 13.333 2 62 2 146v197c-1.33301 206.667 -3.33301 333.334 -6 380.001c-0.666992 18 -1.16699 30.667 -1.5 38s-1.16602 19 -2.49902 35
s-2.66602 27.5 -3.99902 34.5s-3.66602 16.833 -6.99902 29.5s-7.16602 22 -11.499 28s-9.83301 13.167 -16.5 21.5s-14.167 14.5 -22.5 18.5s-18.166 7.83301 -29.499 11.5s-24 5.83398 -38 6.50098z" />
    <glyph glyph-name="I" unicode="I" horiz-adv-x="620" 
d="M49 41c11.333 6.66699 17.9971 9.99902 19.9971 9.99902s7 1.33301 15 4c40.667 14.667 66 35.334 76 62.001c13.333 26.667 20 65.334 20 116.001l8 809c0 50 -2.66699 90.333 -8 121c-10.667 41.333 -29.667 69.333 -57 84c-10 5.33301 -20.667 9.5 -32 12.5
s-19.333 5.16699 -24 6.5s-8.5 5.33301 -11.5 12s-4.5 17.667 -4.5 33c24.667 2.66699 62.834 4 114.501 4s97.334 -0.666992 137.001 -2s92.334 -3.5 158.001 -6.5s102.5 -4.16699 110.5 -3.5l-2 -46c-2 -3.33301 -6.33301 -4.33301 -13 -3s-16.167 1.5 -28.5 0.5
s-22.166 -4.83301 -29.499 -11.5c-16.667 -16.667 -29.167 -40.834 -37.5 -72.501s-12.833 -59.5 -13.5 -83.5v-24c-0.666992 -22 -0.333984 -50.333 0.999023 -85c1.33301 -48.667 2.33301 -79.667 3 -93l6 -731c1.33301 -24.667 5.5 -45.167 12.5 -61.5s15.667 -28 26 -35
s20.333 -12 30 -15s19.5 -5.16699 29.5 -6.5s16.667 -3 20 -5l3 -37h-125l-402 8z" />
    <glyph glyph-name="J" unicode="J" horiz-adv-x="542" 
d="M-244 -70l38.9971 38.9971c26 -23.333 53.667 -41 83 -53c28 -11.333 55 -17 81 -17c2 0 4.33301 0.333008 7 1c28 0.666992 54.167 10.667 78.5 30s43.5 47.333 57.5 84c16.667 50 26.667 133.667 30 251c2.66699 64.667 4 133.334 4 206.001
c0 59.333 -0.666992 121.333 -2 186c-2.66699 100 -4 175.667 -4 227c0 22.667 0.333008 40.667 1 54c0.666992 20 1 39.333 1 58c0 65.333 -3.66699 123 -11 173c-3.33301 38.667 -7.33301 61.334 -12 68.001c-6 8 -20.333 13.333 -43 16
c-2.66699 0 -7.66699 0.333008 -15 1s-11.333 1 -12 1c-12.667 4 -18.834 6.5 -18.501 7.5s-0.5 2.83301 -2.5 5.5l2 39l484 -7l4 -51c-23.333 -7.33301 -39.833 -12.666 -49.5 -15.999s-20.667 -8.5 -33 -15.5s-20.333 -13.333 -24 -19s-8.16699 -14.667 -13.5 -27
s-8.66602 -25.333 -9.99902 -39s-3 -32.167 -5 -55.5l2 -895c-5.33301 -63.333 -15.166 -121.333 -29.499 -174s-36.666 -100.667 -66.999 -144s-66.5 -71.666 -108.5 -84.999c-35.333 -12 -71.333 -18 -108 -18c-33.333 0 -67.333 5 -102 15
c-73.333 20 -130.333 56.333 -171 109c-6.66699 10 -12 17 -16 21c-4 4.66699 -7.33301 8 -10 10c-1.33301 1.33301 -2.66602 3.66602 -3.99902 6.99902c-1.33301 2.66699 -2.33301 5 -3 7z" />
    <glyph glyph-name="K" unicode="K" horiz-adv-x="1300" 
d="M31 1300c23.333 6 110.338 9.33398 261.005 10.001h83c103.333 0 171 -1 203 -3v-47c-36.667 0 -65.667 -8.66699 -87 -26s-34.666 -40.333 -39.999 -69v-432l415 420c26.667 26.667 40 50 40 70c0 5.33301 -1 10.666 -3 15.999c-0.666992 6 -5.33398 11 -14.001 15
s-17.667 6 -27 6h-61l4 47l500 -2l-9 -43c-12.667 -2 -30 -5 -52 -9s-36.333 -6.66699 -43 -8s-16.834 -3.83301 -30.501 -7.5s-24.667 -7.66699 -33 -12l-31.5 -17c-12.667 -7 -27 -15.833 -43 -26.5c-26 -18.667 -81.333 -68 -166 -148
c-129.333 -126.667 -229 -235.667 -299 -327c90 -49.333 159 -109.666 207 -180.999c36 -55.333 72.833 -108.166 110.5 -158.499s82.167 -105.333 133.5 -165s105.166 -111.5 161.499 -155.5s110.166 -74.667 161.499 -92l-2 -57c-125.333 0 -244 21 -356 63
c-18 6 -34 11.833 -48 17.5s-27.333 12.5 -40 20.5s-22.834 14.833 -30.501 20.5s-16.834 14 -27.501 25s-18.334 19.333 -23.001 25l-25.5 31l-26.5 32.5c-35.333 43.333 -81.5 104.666 -138.5 183.999l-111.5 154c-42 58.667 -72.667 90 -92 94l-5 -295v-40
c0 -64 4 -105.333 12 -124c10.667 -22.667 39.667 -37 87 -43v-67l-494 6l2 57c55.333 6 94.333 23.667 117 53c20.667 27.333 31 71.666 31 132.999v17c0 89.333 -2.66699 222.666 -8 399.999c0 22.667 0.333008 64 1 124c0.666992 40 1 75.667 1 107
c-0.666992 16 -1 31 -1 45c0 42 -1.33301 83.667 -4 125c-1.33301 18 -1.33301 38 0 60c0.666992 5.33301 0.666992 11 0 17c0 16 -2 32.667 -6 50c-5.33301 22.667 -14.166 38.167 -26.499 46.5s-27.5 13.333 -45.5 15s-32.667 1.83398 -44 0.500977
c-12 0 -21.667 3.33301 -29 10c-6 5.33301 -9 14.333 -9 27c0 3.33301 0.333008 7 1 11z" />
    <glyph glyph-name="L" unicode="L" horiz-adv-x="1089" 
d="M33 0l2.00195 59.001c19.333 6.66699 34.333 11 45 13c15.333 2 27.666 4.66699 36.999 8c16 4 29.333 11.167 40 21.5s18.667 25.833 24 46.5s9 38.5 11 53.5s4.33301 38.5 7 70.5c6 64.667 9 136 9 214c0 46.667 -1 95.667 -3 147c-2.66699 38 -4 91 -4 159
c0.666992 8.66699 1 17.334 1 26.001v33c0 64.667 -1 116.334 -3 155.001v52.5c0 16.333 -0.166992 31.5 -0.5 45.5s-1.33301 26.833 -3 38.5s-4.5 22.167 -8.5 31.5s-9.33301 17.833 -16 25.5s-15.167 14.167 -25.5 19.5s-23 9.66602 -38 12.999
s-32.5 5.66602 -52.5 6.99902l6 68l564 -4v-41l-45.5 -16.5c-17.667 -6.33301 -30.167 -11 -37.5 -14s-16.5 -7.5 -27.5 -13.5s-18.333 -11.833 -22 -17.5s-8 -14 -13 -25s-8.5 -23.667 -10.5 -38s-3.33301 -31.833 -4 -52.5l4 -655c0 -10 1 -34.667 3 -74
c1.33301 -40 2.66602 -74 3.99902 -102c0.666992 -17.333 0.666992 -34.666 0 -51.999v-38c-0.666992 -32 -2.33398 -54.667 -5.00098 -68c13.333 2 38.833 5 76.5 9s65.334 7.33301 83.001 10s41.5 7.66699 71.5 15s58.667 16.666 86 27.999
c23.333 9.33301 46.333 25.5 69 48.5s44.834 49 66.501 78s37.5 48.167 47.5 57.5l94 -4l-154 -332c-5.33301 -4.66699 -23.333 -7.33398 -54 -8.00098h-32c-22 0 -45.333 0.333008 -70 1s-42.334 1 -53.001 1h-12h-657z" />
    <glyph glyph-name="M" unicode="M" horiz-adv-x="1849" 
d="M29 53c44.667 16 73.332 28.0049 85.999 36.0049c48.667 31.333 80 94.666 94 189.999c0.666992 0.666992 10 80.667 28 240s37.833 325.5 59.5 498.5s37.5 273.5 47.5 301.5h35c18 1.33301 32.333 2.33301 43 3h6c8.66699 0 17 -1.33301 25 -4
c9.33301 -2.66699 16.333 -5 21 -7s10 -7.33301 16 -16s10.5 -16.167 13.5 -22.5l16.5 -34.5l21 -44l405 -780c24 31.333 42 56.333 54 75s24.833 41 38.5 67s27.834 51 42.501 75l62.5 110.5l62.5 110.5l228 453l84 2l163 -1043c8 -82.667 17.667 -139.334 29 -170.001
c18 -35.333 52 -53 102 -53c3.33301 -2 5.83301 -4.66699 7.5 -8s2.5 -6.16602 2.5 -8.49902s-0.166992 -7 -0.5 -14s-0.5 -12.5 -0.5 -16.5h-453c-32.667 0 -49.667 1.33301 -51 4c-2 0.666992 -3 5.16699 -3 13.5s-1 12.833 -3 13.5l32 11.5
c16 5.66699 27.167 10.167 33.5 13.5s14.5 8.66602 24.5 15.999s17.5 16.666 22.5 27.999s8.5 25 10.5 41c2.66699 12.667 2.33398 32.667 -0.999023 60s-7.83301 58 -13.5 92s-9.16699 56.333 -10.5 67c-2.66699 17.333 -7.5 62.166 -14.5 134.499
s-14.5 135.833 -22.5 190.5s-16.667 92 -26 112l-213 -367c-8 -16 -27.167 -56.667 -57.5 -122l-82 -173.5c-24.333 -50.333 -40.833 -81.5 -49.5 -93.5l-80 -2l-211 395c-17.333 31.333 -45.833 80.166 -85.5 146.499s-67.167 114.5 -82.5 144.5
c-1.33301 2 -4.33301 7.5 -9 16.5s-8.5 16 -11.5 21s-6.83301 11 -11.5 18s-9.16699 12.667 -13.5 17s-8.83301 7.5 -13.5 9.5l-59 -436c-1.33301 -10.667 -3 -25.667 -5 -45c-6 -52 -9 -96.167 -9 -132.5s12.167 -66.333 36.5 -90s65.166 -40.5 122.499 -50.5l6 -45
l-487 -2z" />
    <glyph glyph-name="N" unicode="N" horiz-adv-x="1624" 
d="M33 -4l0.00488281 34.999c14 6 31 12.333 51 19s34 11.667 42 15s17.833 8.83301 29.5 16.5s20 16.667 25 27s10.167 24.333 15.5 42s9.66602 39.834 12.999 66.501c5.33301 36.667 8 126.667 8 270c0 84 -1 186.167 -3 306.5s-3 220.5 -3 300.5
c0 136.667 2.66699 214.334 8 233.001l152 2c10 -17.333 39.667 -51.333 89 -102s90.666 -91.667 123.999 -123c60.667 -64 97.334 -101.667 110.001 -113c14.667 -14.667 64.667 -69 150 -163s142.666 -153 171.999 -177l166 -162c4 -3.33301 10.333 -9 19 -17
s16.167 -13.833 22.5 -17.5s13.5 -6.5 21.5 -8.5c0 31.333 0.5 81.333 1.5 150s1.5 130.834 1.5 186.501s-1 104.834 -3 147.501c-3.33301 123.333 -7.33301 199.666 -12 228.999c-4.66699 28.667 -18.667 52.834 -42 72.501s-51 34.5 -83 44.5l10 41
c22.667 5.33301 62.667 8.33301 120 9h45c46 0 97.667 -0.666992 155 -2c76 -2 121.667 -3 137 -3l10 -43l-131 -57c-8.66699 -11.333 -18.167 -32.833 -28.5 -64.5s-16.5 -58.167 -18.5 -79.5c-4 -60 -6 -128 -6 -204c0.666992 -46 1.66699 -95.667 3 -149
c4 -138.667 5.83301 -285.834 5.5 -441.501s-5.83301 -253.834 -16.5 -294.501l-131 -6l-324 331c-4.66699 3.33301 -9.33398 8.33301 -14.001 15s-8.33398 11.334 -11.001 14.001l-352 363c-29.333 32.667 -63.5 68.5 -102.5 107.5s-66.167 60.5 -81.5 64.5l-12 -484
c-3.33301 -124.667 -5 -191.334 -5 -200.001c2 -40 12.667 -68.333 32 -85c13.333 -10.667 49.666 -27.334 108.999 -50.001l19 -7l-4 -55h-483z" />
    <glyph glyph-name="O" unicode="O" horiz-adv-x="1601" 
d="M113 813c24.667 122.667 85.999 232.668 183.999 330.001s209.333 158.666 334 183.999c30 5.33301 66.333 8 109 8c17.333 0.666992 36 0.333984 56 -0.999023c68 -2.66699 123 -9 165 -19c92 -19.333 175.333 -50.833 250 -94.5s131.667 -100.834 171 -171.501
c52 -91.333 87.333 -180.333 106 -267c10.667 -48 15.667 -96.667 15 -146c0.666992 -38.667 -2.33301 -77.334 -9 -116.001c-14.667 -88 -47.667 -176.667 -99 -266c-5.33301 -8.66699 -11.666 -17.667 -18.999 -27l-19 -23.5l-22 -25l-20 -22.5
c-83.333 -93.333 -199.333 -148.666 -348 -165.999c-34 -4.66699 -72.333 -7 -115 -7c-38.667 -0.666992 -80 1 -124 5c-94.667 8 -170 22.333 -226 43c-32.667 12 -69.5 31.667 -110.5 59s-71.833 53.333 -92.5 78c-133.333 155.333 -200 322.333 -200 501
c0 47.333 4.66699 95.333 14 144zM392.999 702.001c0 -28.667 2.83203 -72.3359 8.49902 -131.003s9.16699 -101.667 10.5 -129c19.333 -70.667 48 -133.334 86 -188.001c39.333 -53.333 85 -94.333 137 -123c52.667 -27.333 110.334 -41.666 173.001 -42.999h6
c60 0 115.667 13 167 39c14 20 32.167 39.333 54.5 58s41.666 34.167 57.999 46.5s33.833 33.833 52.5 64.5s34 69.334 46 116.001c19.333 66 29 141 29 225c0 86 -10.333 167.333 -31 244c-21.333 76.667 -50.666 139.334 -87.999 188.001c-34 48 -79.667 89 -137 123
c-43.333 19.333 -103 30.333 -179 33h-12c-60.667 0 -112.334 -10 -155.001 -30c-45.333 -21.333 -87.666 -58.666 -126.999 -111.999c-38 -50.667 -65.333 -108 -82 -172c-0.666992 -17.333 -3.66699 -49.5 -9 -96.5s-8 -84.5 -8 -112.5z" />
    <glyph glyph-name="P" unicode="P" horiz-adv-x="1128" 
d="M31 41l4.00391 -0.00585938c30.667 0.666992 58 9 82 25c25.333 17.333 44.333 35 57 53c6 16 9 98.833 9 248.5s-1 247.834 -3 294.501c0 8 0.666992 60.667 2 158v77c0 66 -1 126.333 -3 181c-2.66699 74.667 -8.33398 120 -17.001 136
c-8.66699 18 -18.834 30.333 -30.501 37s-21.834 9.33398 -30.501 8.00098s-16 1.33398 -22 8.00098s-9 19.334 -9 38.001c51.333 10 131.333 15.667 240 17h23c101.333 0 206 -6.33301 314 -19c116 -13.333 196 -34 240 -62c22 -13.333 36.333 -23 43 -29
c40 -28.667 72 -64.667 96 -108c24.667 -42.667 40 -87.334 46 -134.001c2 -17.333 3 -34.666 3 -51.999c0.666992 -29.333 -2.33301 -59 -9 -89c-10.667 -47.333 -28.334 -90.333 -53.001 -129s-58.167 -71.5 -100.5 -98.5s-89.833 -43.167 -142.5 -48.5
c-27.333 -2.66699 -52.666 -4 -75.999 -4c-80.667 0 -142 15 -184 45l14 51l113 -14c47.333 5.33301 87.333 25.333 120 60s55.667 73.334 69 116.001s20 87 20 133c0 32.667 -2.5 57.834 -7.5 75.501s-14.833 37.5 -29.5 59.5c-36.667 62 -85.667 101.333 -147 118
c-41.333 11.333 -89.333 17 -144 17c-26 0 -54 -1.33301 -84 -4l-6 -671v-318c0 -49.333 12.167 -86 36.5 -110s65.5 -44 123.5 -60v-45c-39.333 -5.33301 -125.333 -8 -258 -8h-25c-146.667 0 -237.334 1.33301 -272.001 4z" />
    <glyph glyph-name="Q" unicode="Q" horiz-adv-x="1531" 
d="M104 738c11.333 84 36.3252 165.165 74.9922 243.498s87.167 145.333 145.5 201s127.5 97.5 207.5 125.5c57.333 20 116.333 30 177 30c24.667 0 49.667 -1.66699 75 -5c130.667 -16.667 218.334 -35 263.001 -55c72 -32.667 137 -85 195 -157s101.333 -151.667 130 -239
c23.333 -69.333 35 -135.666 35 -198.999c0 -16 -0.666992 -32 -2 -48c-14 -136.667 -41.667 -246.667 -83 -330s-108 -154.333 -200 -213c-66.667 -40 -124 -67.333 -172 -82c20.667 -8.66699 40.334 -18.167 59.001 -28.5s35.667 -22 51 -35s28.333 -24.5 39 -34.5
s21.834 -22.833 33.501 -38.5l24.5 -33c4.66699 -6.33301 11.834 -17.166 21.501 -32.499s14.834 -23.666 15.501 -24.999c8 -12 16.167 -26 24.5 -42s14.5 -27.5 18.5 -34.5s10.333 -15.5 19 -25.5s18 -17.333 28 -22s24.333 -10 43 -16s41 -11.167 67 -15.5
s58.333 -9.16602 97 -14.499v-53h-57c-13.333 -0.666992 -25.166 -1 -35.499 -1s-18.5 0.333008 -24.5 1c-13.333 0 -31 0.333008 -53 1s-42 1.83398 -60 3.50098s-35.667 4.16699 -53 7.5c-54 8.66699 -94.167 18.5 -120.5 29.5s-61.833 31.833 -106.5 62.5
c-28.667 21.333 -57.334 49.333 -86.001 84s-52.667 66 -72 94s-45.833 55.667 -79.5 83s-71.834 47.666 -114.501 60.999c-55.333 17.333 -97.166 31.166 -125.499 41.499s-61.166 24.833 -98.499 43.5s-69.666 40.5 -96.999 65.5s-53.666 55.167 -78.999 90.5
c-54 75.333 -91.333 158.333 -112 249c-13.333 57.333 -20 113.666 -20 168.999c0 31.333 2.33301 62.333 7 93zM341.992 675.998l0.000976562 -23.002c0 -60.667 9.33301 -122 28 -184c20.667 -70 51 -134.333 91 -193c78 -111.333 179.667 -168 305 -170
c62.667 0 118.667 13 168 39c58.667 32 101.667 66.333 129 103c44.667 60.667 75 144.667 91 252c7.33301 50.667 11 101.334 11 152.001c0 56.667 -5 113.334 -15 170.001c-17.333 106.667 -48.333 190.334 -93 251.001c-40 65.333 -112.333 111 -217 137
c-13.333 3.33301 -29.333 5 -48 5c-24.667 0 -54 -3 -88 -9c-60.667 -10 -100 -15.333 -118 -16c-48.667 -24 -92.334 -61.667 -131.001 -113c-26 -36 -50.667 -94 -74 -174c-26 -88.667 -39 -164.334 -39 -227.001z" />
    <glyph glyph-name="R" unicode="R" horiz-adv-x="1136" 
d="M37 45l115.006 55.0039c9.33301 8.66699 16.833 30.5 22.5 65.5s9.16699 77.5 10.5 127.5s2 96.5 2 139.5s-0.5 87.667 -1.5 134s-1.5 72.5 -1.5 78.5c0 9.33301 0.333008 37.666 1 84.999c0.666992 31.333 1 60.666 1 87.999v39c0 37.333 -0.666992 79.5 -2 126.5
s-4 88 -8 123s-9.33301 60.833 -16 77.5c-6.66699 16 -16.334 28.833 -29.001 38.5s-24.167 15.5 -34.5 17.5s-22.166 3.5 -35.499 4.5s-21.333 1.83301 -24 2.5v58c19.333 4.66699 97.666 7 234.999 7c15.333 0 29.666 0.333008 42.999 1c111.333 0 179 -1.33301 203 -4
c66.667 -3.33301 137.667 -16.333 213 -39c55.333 -17.333 101.666 -44 138.999 -80c38.667 -36 65.334 -76.333 80.001 -121c13.333 -39.333 19.666 -80.333 18.999 -123v-18c-2 -49.333 -12.333 -96.666 -31 -141.999c-38.667 -98.667 -113 -165.334 -223 -200.001
c-18 -6 -31 -12.333 -39 -19c26 -10 47.667 -19.833 65 -29.5s31.666 -18.667 42.999 -27s23.333 -22 36 -41s22.5 -35.167 29.5 -48.5l37.5 -73l137 -274c52.667 -54 132.667 -91.667 240 -113v-41c-28.667 -6.66699 -59 -10 -91 -10c-48 0 -99.333 7.33301 -154 22
c-92 24 -159.333 59.667 -202 107c-66.667 72 -113.667 141.667 -141 209c-4.66699 11.333 -11.667 30.666 -21 57.999s-17.333 49 -24 65c-18 40.667 -48.333 79 -91 115c-32.667 28 -60.334 42 -83.001 42c-6.66699 0 -13 -1.33301 -19 -4l-4 -293v-15
c0 -18.667 1 -35.334 3 -50.001c2.66699 -18.667 8.16699 -36.667 16.5 -54s21.166 -30.833 38.499 -40.5s39 -15.167 65 -16.5l4 -55l-522 4zM410.006 621.004l201.999 21.998c50.667 30.667 87 64.667 109 102c12 20.667 22.5 48.834 31.5 84.501s13.5 71.167 13.5 106.5
c0 11.333 -0.666992 22.833 -2 34.5s-3.16602 23.167 -5.49902 34.5s-4.5 21 -6.5 29s-4.5 17.5 -7.5 28.5s-4.83301 17.833 -5.5 20.5c-8 24.667 -23 46.334 -45 65.001s-46.667 33 -74 43s-54 17.5 -80 22.5s-50.333 7.5 -73 7.5l-49 -7c0 -230 -2.66699 -427.667 -8 -593
z" />
    <glyph glyph-name="S" unicode="S" horiz-adv-x="856" 
d="M45 293l66 11.9932c11.333 -76.667 41.666 -135.667 90.999 -177c47.333 -40 106.666 -60 177.999 -60h7c49.333 0 91.666 9.33301 126.999 28c36 18.667 60.667 43.334 74 74.001c6 14 9 29.333 9 46c0 18.667 -4 39.334 -12 62.001
c-15.333 41.333 -45.666 82.333 -90.999 123l-222 183c-8.66699 12 -15.334 20 -20.001 24c-50.667 45.333 -92.334 100 -125.001 164s-51 131.333 -55 202v17c0 64 19 123.333 57 178c28.667 40.667 59 72.834 91 96.501s63.333 38.834 94 45.501
c30.667 7.33301 63.334 11 98.001 11h6c32 0 64 -2.66699 96 -8c33.333 -5.33301 69 -8.66602 107 -9.99902h16c32 0 63.333 1.66699 94 5l21 -310l-29 -2l-25.5 55l-22.5 48.5c-4.66699 9.66699 -11.667 22 -21 37s-18.166 25.667 -26.499 32s-19.166 13.333 -32.499 21
s-28.666 13 -45.999 16s-37.333 4.83301 -60 5.5c-10.667 1.33301 -20.667 2 -30 2c-58.667 0 -108.334 -18.667 -149.001 -56c-36 -32.667 -54 -71 -54 -115c0 -14 2 -28.667 6 -44c8 -30.667 52.5 -88.667 133.5 -174s142.5 -145.333 184.5 -180
c6 -5.33301 15.667 -13.333 29 -24l31 -25.5c7.33301 -6.33301 16 -14.333 26 -24s18.667 -19.167 26 -28.5c48 -62 81.333 -123.667 100 -185c8 -27.333 12 -54.666 12 -81.999c0 -33.333 -6 -66.666 -18 -99.999c-22.667 -58.667 -68.334 -107 -137.001 -145
c-64.667 -35.333 -139.667 -57 -225 -65c-20 -2 -40 -2.66699 -60 -2c-63.333 0 -122.666 9.33301 -177.999 28c-6 2 -14.167 5 -24.5 9s-17.166 6.5 -20.499 7.5s-8.33301 3.16699 -15 6.5s-10.834 5.5 -12.501 6.5s-4.83398 3.66699 -9.50098 8s-7.66699 8 -9 11
s-3.66602 7.83301 -6.99902 14.5s-6.16602 13.167 -8.49902 19.5l-9.5 25.5c-14 42 -22.333 106.333 -25 193z" />
    <glyph glyph-name="T" unicode="T" horiz-adv-x="1169" 
d="M-31 1051c1.33301 11.333 5.50391 28.501 12.5039 51.501s16 50.167 27 81.5l30 82.5l32 83.5c12.333 32 19.5 51 21.5 57h41c0.666992 -2.66699 1.66699 -8 3 -16s2.5 -13.667 3.5 -17l5 -16c2.33301 -7.33301 5.5 -12.666 9.5 -15.999s8.83301 -7.83301 14.5 -13.5
s13 -10 22 -13s19.333 -6 31 -9s25.5 -5.16699 41.5 -6.5s34 -2 54 -2c36.667 0.666992 91.667 1 165 1s128.333 0.333008 165 1c56.667 0 161.334 3 314.001 9c17.333 0.666992 34.166 4.83398 50.499 12.501s32.833 19.667 49.5 36s28.5 28.666 35.5 36.999l33.5 41.5
l46 6l-95 -391h-34c-1.33301 14.667 -2.5 26.334 -3.5 35.001s-3.33301 17.334 -7 26.001s-5.83398 15 -6.50098 19s-4.66699 8.16699 -12 12.5s-12 7.16602 -14 8.49902s-9.16699 3 -21.5 5s-21.166 3.16699 -26.499 3.5s-17.333 1.16602 -36 2.49902l-234 11v-781
c0 -8 -0.666992 -25.667 -2 -53c-1.33301 -22 -2 -41.667 -2 -59v-12c0 -20 1.33301 -42.333 4 -67s8.5 -45.834 17.5 -63.501s20.833 -30.5 35.5 -38.5l129 -47v-45l-585 -8l2 37c9.33301 4.66699 22.666 9.66699 39.999 15s31.833 10.5 43.5 15.5s23.5 12.5 35.5 22.5
s20.667 24.667 26 44c4 15.333 6 34 6 56v17l-4 191c-0.666992 47.333 -1.33398 97.333 -2.00098 150v54c0 73.333 0.5 132.166 1.5 176.499l4.5 203c2 91 3.33301 154.167 4 189.5c-24.667 3.33301 -112.667 5 -264 5c-22.667 -0.666992 -42.334 -5.5 -59.001 -14.5
s-29.334 -19 -38.001 -30s-19.5 -25.667 -32.5 -44s-24.5 -32.833 -34.5 -43.5z" />
    <glyph glyph-name="U" unicode="U" horiz-adv-x="1509" 
d="M37 1262l2.00195 51.002l559 -2l-4 -60c-8.66699 -2 -20.167 -4.16699 -34.5 -6.5s-24.333 -4.16602 -30 -5.49902s-12.834 -4 -21.501 -8s-15.834 -9 -21.501 -15s-11.5 -14 -17.5 -24c-8.66699 -14.667 -14.667 -40.667 -18 -78c-2 -24.667 -3 -52.667 -3 -84v-49
c1.33301 -51.333 3.33301 -97.833 6 -139.5s6 -87.167 10 -136.5l7 -87l3.5 -61l3.5 -62c0.666992 -12 2.33398 -30 5.00098 -54s5.66699 -43.333 9 -58s8.16602 -31.834 14.499 -51.501s13.5 -38.167 21.5 -55.5c22.667 -48 55.334 -86.667 98.001 -116
c38 -25.333 83.667 -38 137 -38c7.33301 0 15 0.333008 23 1c41.333 1.33301 95.333 13 162 35c42.667 16 69 28 79 36c11.333 8.66699 25.333 24.667 42 48c22 32.667 39.167 83.5 51.5 152.5s19.833 135.167 22.5 198.5s4.66699 135.666 6 216.999s3.33301 137 6 167
c0.666992 13.333 1 28 1 44c0 40 -2.33301 88.667 -7 146c-20.667 47.333 -61 75.333 -121 84l2 58l438 -6c2 -4 3 -8.66699 3 -14c0 -8 -2.33301 -17 -7 -27c-2.66699 -1.33301 -10.334 -4.16602 -23.001 -8.49902s-23.5 -8.83301 -32.5 -13.5s-19.5 -11 -31.5 -19
s-22 -18.333 -30 -31s-14 -27 -18 -43c-6.66699 -28 -10 -68 -10 -120c0 -33.333 1.33301 -72 4 -116c0.666992 -14 1 -30.333 1 -49c0 -46.667 -2 -108 -6 -184c-5.33301 -105.333 -10.333 -189.333 -15 -252c-18 -155.333 -76 -273.666 -174 -354.999
c-88 -72.667 -197 -109 -327 -109c-14.667 0 -30 0.333008 -46 1c-96 1.33301 -193.5 24.166 -292.5 68.499s-170.833 103.5 -215.5 177.5c-14 24 -26 57.5 -36 100.5s-17.667 93.167 -23 150.5s-9.33301 107.833 -12 151.5s-5 96.167 -7 157.5s-3.33301 99.333 -4 114
c-0.666992 18.667 -1.33398 55.167 -2.00098 109.5s-2.66699 98.166 -6 131.499l-2.5 27.5c-0.333008 3.66699 -1.66602 10.334 -3.99902 20.001s-3.5 15 -3.5 16s-2.33301 5 -7 12s-7.66699 10.667 -9 11s-6.33301 3.66602 -15 9.99902s-15 10.166 -19 11.499
s-13 5.5 -27 12.5z" />
    <glyph glyph-name="V" unicode="V" horiz-adv-x="1474" 
d="M-12 1305c21.333 2.66699 43.1709 4.00293 65.5039 4.00293s47.166 -0.666992 74.499 -2s49 -2 65 -2c11.333 2 30 3 56 3c18 0 39.333 -0.666992 64 -2c60.667 -2.66699 105 -3.66699 133 -3l164 2l-2 -52c-0.666992 -5.33301 -11 -9 -31 -11s-40.333 -4.66699 -61 -8
c-20 -2.66699 -36 -12 -48 -28c-4.66699 -6.66699 -7.33398 -14.334 -8.00098 -23.001c0 -13.333 5 -30 15 -50c14 -29.333 44.167 -106 90.5 -230s91.5 -239 135.5 -345s76.667 -169 98 -189c10 13.333 51.167 110.666 123.5 291.999s112.166 286 119.499 314l56 229
c-9.33301 9.33301 -16.666 16.166 -21.999 20.499l-14 11.5c-4 3.33301 -9.83301 5.83301 -17.5 7.5l-18.5 4c-4.66699 1 -14.834 2.5 -30.501 4.5s-29.5 3.66699 -41.5 5l2 48c90.667 1.33301 180.5 1.83301 269.5 1.5s176.833 -0.833008 263.5 -1.5l-2 -43
c-40.667 -2 -76 -8.83301 -106 -20.5s-55.167 -28.667 -75.5 -51s-36.833 -44.5 -49.5 -66.5s-25.667 -50 -39 -84c-28 -65.333 -72.167 -181.5 -132.5 -348.5s-106.5 -288.167 -138.5 -363.5l-155 -342l-107 -2c-10.667 10.667 -45.334 85 -104.001 223l-194.5 464.5
c-71 171.667 -118.167 283.167 -141.5 334.5c-14.667 34 -38 75 -70 123s-60.667 76.333 -86 85l-96 23z" />
    <glyph glyph-name="W" unicode="W" horiz-adv-x="2220" 
d="M-43 1309c15.333 0.666992 38.001 2.66797 68.001 6.00098s52.333 5.33301 67 6c38.667 2 97.667 3 177 3s179.333 -1 300 -3l4 -68c-32.667 -0.666992 -59 -3.16699 -79 -7.5s-35.667 -11.833 -47 -22.5s-16.166 -25.334 -14.499 -44.001s9.16699 -42.334 22.5 -71.001
c55.333 -115.333 150 -345.333 284 -690c2.66699 2 4.83398 2.66699 6.50098 2s3 -0.5 4 0.5s2.83301 4.66699 5.5 11s6.33398 16.833 11.001 31.5c0.666992 1.33301 3 8.33301 7 21s7.66699 22 11 28l295 741l129 4c3.33301 -20.667 28.166 -86 74.499 -196l151.5 -354
c54.667 -126 88.667 -207.333 102 -244l29 -53c16 21.333 62.167 123.833 138.5 307.5s126.833 309.167 151.5 376.5c10 26 16.333 48.167 19 66.5s3.16699 32.666 1.5 42.999s-6.83398 19.333 -15.501 27s-16.667 12.834 -24 15.501s-18.5 6.5 -33.5 11.5
s-26.833 9.16699 -35.5 12.5c-2.66699 2 -5.33398 3.83301 -8.00098 5.5s-5.33398 3.16699 -8.00098 4.5l10 33l492 -6l-2 -37c-26.667 -11.333 -52.667 -20 -78 -26s-42.666 -9.66699 -51.999 -11s-21 -8.16602 -35 -20.499s-27.5 -30.5 -40.5 -54.5
s-31.167 -61 -54.5 -111c-44 -93.333 -91 -200.5 -141 -321.5l-162 -401l-134 -332.5l-110 -8c-11.333 34 -71.333 180 -180 438l-170 438c-3.33301 -10 -10.833 -25.5 -22.5 -46.5s-19.834 -38.833 -24.501 -53.5c-6.66699 -15.333 -21 -53.666 -43 -114.999l-43 -114.5
l-39 -104.5l-164 -446l-142 -3c-25.333 74 -70.333 186 -135 336c-9.33301 20 -24.5 57.5 -45.5 112.5l-66.5 180l-67.5 190.5l-54.5 156c-14.667 42 -22 63.333 -22 64c-46.667 135.333 -132.667 211.666 -258 228.999z" />
    <glyph glyph-name="X" unicode="X" horiz-adv-x="1353" 
d="M8 0l3.99805 56.9922c20.667 6.66699 43.167 11 67.5 13s43.666 4.5 57.999 7.5s31.833 10.833 52.5 23.5s43.834 35.334 69.501 68.001s55.834 77.334 90.501 134.001l225 363c-11.333 9.33301 -31.333 36.833 -60 82.5s-60 98.334 -94 158.001
s-54.333 94.834 -61 105.501l-44 69l-41 64c-8 12 -18.167 25.833 -30.5 41.5s-22 25.667 -29 30s-17.5 9.83301 -31.5 16.5s-28.333 11.5 -43 14.5l-59 12.5l-39 8l10 43l594 -11c-0.666992 -3.33301 -1.16699 -9 -1.5 -17s-1.33301 -14 -3 -18
s-4.83398 -6.66699 -9.50098 -8c-5.33301 -2 -16.333 -3.33301 -33 -4s-30 -3.66699 -40 -9c-11.333 -6 -17 -15.667 -17 -29c0 -22.667 20.333 -62.334 61 -119.001l119 -164c2.66699 -4 6 -9.5 10 -16.5s7 -11.667 9 -14s5.5 -5.33301 10.5 -9
s11.5 -6.83398 19.5 -9.50098c15.333 32 45.5 85.333 90.5 160s77.833 134.667 98.5 180c1.33301 12.667 -4.5 23.334 -17.5 32.001s-33.167 15 -60.5 19v31l465 -5l-2 -38c-70 -7.33301 -128.667 -28.666 -176 -63.999s-90.666 -85.666 -129.999 -150.999l-184 -347
c50.667 -82.667 119.667 -202 207 -358c2 -4 9.33301 -16.667 22 -38l29 -49.5c6.66699 -11.667 16.667 -27.667 30 -48s25 -36.333 35 -48s21 -22.834 33 -33.501s23 -17.667 33 -21l119 -28c2.66699 -6.66699 4.33398 -12.334 5.00098 -17.001
c1.33301 -7.33301 2 -11.666 2 -12.999c0.666992 -2.66699 0.333984 -6.66699 -0.999023 -12c-1.33301 -8 -2 -14.667 -2 -20l-616 -4l-9 49l32.5 11.5l27.5 9.5c6 2 12.833 4.66699 20.5 8s12.667 6.33301 15 9s4.83301 6.33398 7.5 11.001s3.33398 9.33398 2.00098 14.001
s-3.5 11 -6.5 19s-7.33301 16.5 -13 25.5s-12.834 19.833 -21.501 32.5l-168 266c-10.667 -10 -49.667 -62 -117 -156c-8.66699 -12.667 -17.667 -27.667 -27 -45s-16.5 -31.333 -21.5 -42l-23.5 -51.5c-10.667 -23.667 -17.334 -38.167 -20.001 -43.5
c0.666992 -24 9 -40.667 25 -50s37 -15.666 63 -18.999s43.667 -7.66602 53 -12.999l2 -45h-565z" />
    <glyph glyph-name="Y" unicode="Y" horiz-adv-x="1335" 
d="M-33 1245l2 62.0049l566 -2l2 -33c-27.333 -7.33301 -48.666 -14 -63.999 -20s-29 -15.167 -41 -27.5s-16 -26.5 -12 -42.5c4.66699 -16.667 52.334 -77.667 143.001 -183c10.667 -14.667 27.5 -35.834 50.5 -63.501s39.833 -48.834 50.5 -63.501
c2.66699 -3.33301 6.66699 -8.83301 12 -16.5s9.5 -13.334 12.5 -17.001s7.16699 -7.83398 12.5 -12.501s11.333 -8.33398 18 -11.001c13.333 12.667 44.5 54 93.5 124s77.833 110.667 86.5 122c23.333 30.667 40.333 55.167 51 73.5s18 34 22 47s1.66699 24 -7 33
s-19.167 16.833 -31.5 23.5s-31.166 15.334 -56.499 26.001l-29 12c1.33301 2 2.16602 6 2.49902 12s0.833008 9.33301 1.5 10c3.33301 1.33301 19.666 1.33301 48.999 0c44 -1.33301 101 -2 171 -2h54c32 0.666992 61.667 1 89 1c54.667 0 101 -0.333008 139 -1l-6 -51
c-4.66699 0.666992 -9.66699 1 -15 1c-22 0 -48.333 -7.33301 -79 -22c-38 -18.667 -72.333 -39 -103 -61c-9.33301 -7.33301 -20.166 -18.5 -32.499 -33.5s-23 -28.833 -32 -41.5l-35.5 -52l-29 -43c-94 -138 -163.667 -237 -209 -297l-35 -41
c-0.666992 -30.667 -1.33398 -52 -2.00098 -64v-7c0 -14 0.666992 -36.667 2 -68c2 -38.667 3.33301 -65.167 4 -79.5s2.16699 -39.833 4.5 -76.5s3.83301 -59 4.5 -67c2.66699 -44 9 -81.167 19 -111.5s23.167 -53 39.5 -68s32.333 -25.5 48 -31.5s33.834 -10 54.501 -12
l-2 -72l-583 4v61c63.333 0 110 17 140 51c24.667 28 37 66 37 114c0 9.33301 -0.333008 19.333 -1 30l-6 389c-6 3.33301 -12.5 8.33301 -19.5 15s-12.5 12.667 -16.5 18s-9.5 13.166 -16.5 23.499s-11.5 16.833 -13.5 19.5l-61 82c-144 205.333 -226.667 317.333 -248 336
c-8.66699 14 -18.5 26.167 -29.5 36.5s-24 19 -39 26s-27.833 12.333 -38.5 16s-25.834 8.16699 -45.501 13.5s-33.834 9.33301 -42.501 12z" />
    <glyph glyph-name="Z" unicode="Z" horiz-adv-x="1288" 
d="M23 948l124.001 432.002l37 6c9.33301 -28 24.666 -50.333 45.999 -67s46.333 -25 75 -25l918 2c-2.66699 -11.333 -30 -58.833 -82 -142.5s-86.333 -137.167 -103 -160.5l-100 -147c-38.667 -49.333 -108.834 -158.5 -210.501 -327.5s-157.834 -261.833 -168.501 -278.5
c-53.333 -75.333 -85.333 -124.666 -96 -147.999c58.667 -0.666992 111.667 -0.666992 159 0h66c62.667 0 118.834 4.33301 168.501 13s98.5 24.5 146.5 47.5s101.333 56.833 160 101.5c14.667 11.333 27.334 22.666 38.001 33.999s18.167 18.333 22.5 21
s11.833 5.16699 22.5 7.5s28.667 4.16602 54 5.49902l-157 -316c-26 0 -67.5 -2 -124.5 -6s-100.167 -6 -129.5 -6c-60 -0.666992 -129.667 -1 -209 -1c-158.667 0 -356.667 1.66699 -594 5c2 18 14.5 45.667 37.5 83s53.333 81.166 91 131.499s57.5 77.166 59.5 80.499
l48 75.5l45 71.5l47 74l47 74l188.5 292l192.5 300c-14 0.666992 -30 1 -48 1c-54.667 0.666992 -126 -1.66602 -214 -6.99902c-116 -6.66699 -193.333 -10.334 -232 -11.001c-76 0 -139.333 -19.667 -190 -59c-27.333 -20 -48.5 -48.667 -63.5 -86
s-26.167 -60.666 -33.5 -69.999h-38z" />
    <glyph glyph-name="underscore" unicode="_" horiz-adv-x="1024" 
d="M2 -446c42.667 8 215.833 11.332 519.5 9.99902s469.167 -5.66602 496.5 -12.999l4 -118l-47 -6l-117 2l-856 4v121z" />
    <glyph glyph-name="a" unicode="a" horiz-adv-x="1374" 
d="M283 1303l2 -1297h813v1294z" />
    <glyph glyph-name="b" unicode="b" horiz-adv-x="1128" 
d="M283 1303l2 -1297h813v1294z" />
    <glyph glyph-name="c" unicode="c" horiz-adv-x="1323" 
d="M283 1303l2 -1297h813v1294z" />
    <glyph glyph-name="d" unicode="d" horiz-adv-x="1482" 
d="M283 1303l2 -1297h813v1294z" />
    <glyph glyph-name="e" unicode="e" horiz-adv-x="1034" 
d="M283 1303l2 -1297h813v1294z" />
    <glyph glyph-name="f" unicode="f" horiz-adv-x="1007" 
d="M283 1303l815 -3v-1294h-813z" />
    <glyph glyph-name="g" unicode="g" horiz-adv-x="1509" 
d="M283 1303l2 -1297h813v1294z" />
    <glyph glyph-name="h" unicode="h" horiz-adv-x="1495" 
d="M283 1303l2 -1297h813v1294z" />
    <glyph glyph-name="i" unicode="i" horiz-adv-x="620" 
d="M283 1303l2 -1297h813v1294z" />
    <glyph glyph-name="j" unicode="j" horiz-adv-x="542" 
d="M283 1303l2 -1297h813v1294z" />
    <glyph glyph-name="k" unicode="k" horiz-adv-x="1300" 
d="M283 1303l2 -1297h813v1294z" />
    <glyph glyph-name="l" unicode="l" horiz-adv-x="1089" 
d="M283 1303l2 -1297h813v1294z" />
    <glyph glyph-name="m" unicode="m" horiz-adv-x="1849" 
d="M283 1303l2 -1297h813v1294z" />
    <glyph glyph-name="n" unicode="n" horiz-adv-x="1624" 
d="M283 1303l2 -1297h813v1294z" />
    <glyph glyph-name="o" unicode="o" horiz-adv-x="1601" 
d="M283 1303l2 -1297h813v1294z" />
    <glyph glyph-name="p" unicode="p" horiz-adv-x="1128" 
d="M283 1303l2 -1297h813v1294z" />
    <glyph glyph-name="q" unicode="q" horiz-adv-x="1531" 
d="M283 1303l2 -1297h813v1294z" />
    <glyph glyph-name="r" unicode="r" horiz-adv-x="1136" 
d="M283 1303l2 -1297h813v1294z" />
    <glyph glyph-name="s" unicode="s" horiz-adv-x="856" 
d="M283 1303l2 -1297h813v1294z" />
    <glyph glyph-name="t" unicode="t" horiz-adv-x="1169" 
d="M283 1303l2 -1297h813v1294z" />
    <glyph glyph-name="u" unicode="u" horiz-adv-x="1509" 
d="M283 1303l2 -1297h813v1294z" />
    <glyph glyph-name="v" unicode="v" horiz-adv-x="1474" 
d="M283 1303l2 -1297h813v1294z" />
    <glyph glyph-name="w" unicode="w" horiz-adv-x="2220" 
d="M283 1303l2 -1297h813v1294z" />
    <glyph glyph-name="x" unicode="x" horiz-adv-x="1353" 
d="M283 1303l2 -1297h813v1294z" />
    <glyph glyph-name="y" unicode="y" horiz-adv-x="1335" 
d="M283 1303l2 -1297h813v1294z" />
    <glyph glyph-name="z" unicode="z" horiz-adv-x="1288" 
d="M283 1303l2 -1297h813v1294z" />
    <glyph glyph-name="uni00A0" unicode="&#xa0;" horiz-adv-x="520" 
 />
    <glyph glyph-name="sterling" unicode="&#xa3;" horiz-adv-x="1046" 
d="M109 565l0.000976562 86.001l161 2c-5.33301 25.333 -14.666 62 -27.999 110s-24 89.667 -32 125s-14.333 74.166 -19 116.499s-2 81.5 8 117.5s27.667 67.667 53 95c22 23.333 46 43.166 72 59.499s54.333 28.666 85 36.999s59.334 14.5 86.001 18.5s58.667 5.5 96 4.5
s68.166 -2.33301 92.499 -4s56.666 -4.66699 96.999 -9s70.166 -7.16602 89.499 -8.49902l45 55l39 -2l-16 -369l-55 -2c-6.66699 78.667 -28.5 135.667 -65.5 171s-95.833 59 -176.5 71c-84.667 12 -151 -8.33301 -199 -61s-61.667 -129.334 -41 -230.001l93 -297h309v-78
h-293c-8 -86.667 -16.333 -150.834 -25 -192.501s-19.667 -76.667 -33 -105s-38.333 -71.833 -75 -130.5c40.667 5.33301 98.667 9.16602 174 11.499s128.666 4.83301 159.999 7.5c3.33301 0.666992 10.5 1.5 21.5 2.5l22 2c3.66699 0.333008 10.167 1.16602 19.5 2.49902
s16.166 2.5 20.499 3.5l17.5 4c7.33301 1.66699 13.333 3.66699 18 6s9.66699 5 15 8s10.333 6.5 15 10.5c10.667 8.66699 20.5 19.334 29.5 32.001s27.833 31.334 56.5 56.001c0.666992 -2 3.66699 -2.66699 9 -2c2.66699 0 2.83398 -3.83301 0.500977 -11.5
s-7.5 -21.5 -15.5 -41.5l-63 -230l-736 -8c50.667 66 88 131.333 112 196s36.333 125.834 37 183.501s-1.66602 120.834 -6.99902 189.501c-16 4 -32.667 5.83301 -50 5.5s-40.833 -1.66602 -70.5 -3.99902s-47.5 -3.5 -53.5 -3.5z" />
    <glyph glyph-name="uni00AD" unicode="&#xad;" 
d="M51 483v137.999c12.667 8.66699 92.667 12.334 240 11.001s225 -6 233 -14l2 -135l-14 -6h-35z" />
    <glyph glyph-name="Agrave" unicode="&#xc0;" horiz-adv-x="1382" 
d="M-8 51c57.333 13.333 102.332 40.998 134.999 82.998s63.334 99 92.001 171l211 514c17.333 47.333 55.166 132 113.499 254s96.166 203.333 113.499 244l82 2l72.5 -154l81.5 -176l180 -422c108 -228 166 -351.333 174 -370
c5.33301 -9.33301 13.166 -23.833 23.499 -43.5s17.666 -32.5 21.999 -38.5s11.833 -14.167 22.5 -24.5s23.167 -17.833 37.5 -22.5s32.5 -9 54.5 -13l-6 -51l-498 -10l-26 8l-3 35c14 2 23.833 3.66699 29.5 5s15.667 4 30 8s24.833 8 31.5 12s14.834 10.333 24.501 19
s15.834 18.167 18.501 28.5s3.83398 23.333 3.50098 39s-3.83301 33.167 -10.5 52.5c-10 28.667 -25.667 66 -47 112s-37 83.667 -47 113h-501c-1.33301 -3.33301 -8.16602 -19.5 -20.499 -48.5l-30.5 -73.5c-8 -20 -16.833 -43.833 -26.5 -71.5s-16.5 -52 -20.5 -73
s-4.33301 -37.167 -1 -48.5c4.66699 -18 12.5 -31.5 23.5 -40.5s21.667 -14.167 32 -15.5s19.5 -5.16602 27.5 -11.499s11.667 -16.166 11 -29.499c-16 -4.66699 -25 -7.16699 -27 -7.5s-11.333 0.166992 -28 1.5l-313 -6c-7.33301 -0.666992 -12.666 -1 -15.999 -1
s-6 0.333008 -8 1s-3.33301 1.16699 -4 1.5s-1.83398 1.5 -3.50098 3.5s-3.5 3.66699 -5.5 5zM218.999 1659l16.998 -30.998c8.66699 -8.66699 66.334 -39 173.001 -91s172.334 -82.333 197.001 -91l36 -16c14.667 -6.66699 24.5 -10.834 29.5 -12.501s13.167 -4 24.5 -7
s23.166 -4.83301 35.499 -5.5s28.5 -1.33398 48.5 -2.00098c-5.33301 18 -31.666 51.833 -78.999 101.5s-82.333 83.5 -105 101.5c-10 8 -19.5 17 -28.5 27s-15.833 16.5 -20.5 19.5s-14.334 6 -29.001 9s-37 5.5 -67 7.5c-121.333 8 -198.666 4.66699 -231.999 -10z
M484.997 545l349 -4l-156 374l-31 80z" />
    <glyph glyph-name="Aacute" unicode="&#xc1;" horiz-adv-x="1374" 
d="M-8 57c24 5.33301 46.335 14.3291 67.002 26.9961s38.167 26.167 52.5 40.5s28.5 32.833 42.5 55.5s25.5 43.167 34.5 61.5s19.167 41.5 30.5 69.5l207 510c16.667 42.667 53.167 123.334 109.5 242.001s94.833 202.667 115.5 252l82 2
c80 -164 130.667 -273.333 152 -328l182 -418l172 -370l23.5 -42.5c10.333 -19 17.666 -31.5 21.999 -37.5s11.833 -14 22.5 -24s23.167 -17.333 37.5 -22s32.5 -8.66699 54.5 -12l-6 -51l-494 -12l-29 8l-2 35c48 9.33301 80.333 19.333 97 30
c41.333 25.333 51.333 69.333 30 132c-10.667 30 -26.5 68.333 -47.5 115s-36.5 84 -46.5 112l-498 -2c-76 -166 -108.667 -269.667 -98 -311c4.66699 -18 12.334 -31.667 23.001 -41s21.167 -14.666 31.5 -15.999s19.333 -5.16602 27 -11.499s11.167 -16.5 10.5 -30.5
c-16.667 -4 -34.334 -6 -53.001 -6l-313 -6c-8 -1.33301 -14.167 -1.66602 -18.5 -0.999023s-6.83301 1.16699 -7.5 1.5s-1.83398 1.5 -3.50098 3.5s-3.5 4 -5.5 6zM483.002 550.996l344 -8l-153 375l-31 79zM621.002 1395c5.33301 18.667 30.8359 51.832 76.5029 99.499
s81.5 82.5 107.5 104.5c10.667 8 20.334 16.667 29.001 26s15.167 15.5 19.5 18.5s13.833 6.16699 28.5 9.5s36.667 6 66 8c121.333 8.66699 198.666 5.33398 231.999 -9.99902l-17 -31c-8.66699 -8.66699 -66.334 -38.667 -173.001 -90s-172.334 -81.333 -197.001 -90
l-36 -15.5c-14.667 -6.33301 -24.334 -10.333 -29.001 -12s-12.667 -4.16699 -24 -7.5s-23 -5.5 -35 -6.5s-28 -2.16699 -48 -3.5z" />
    <glyph glyph-name="Acircumflex" unicode="&#xc2;" horiz-adv-x="1372" 
d="M-8 59c30 6.66699 56.834 18.001 80.501 34.001s44.334 36.5 62.001 61.5s32.334 48.833 44.001 71.5s24.5 51 38.5 85l209 512c16.667 44 53.5 125.667 110.5 245s95.167 202.333 114.5 249l80 2c87.333 -178.667 139.333 -287.334 156 -326.001l178 -420
c62.667 -128 120 -251.333 172 -370c6 -9.33301 14.333 -23.5 25 -42.5s18.167 -31.333 22.5 -37s11.666 -13.5 21.999 -23.5s22.5 -17.5 36.5 -22.5s32 -9.83301 54 -14.5l-4 -49l-496 -12l-27 8l-4 35c50.667 9.33301 85 20.666 103 33.999c37.333 26 46 69.333 26 130
c-10 26.667 -25.667 63.334 -47 110.001s-37 85 -47 115h-500l-26.5 -64c-15 -36 -27.667 -67.5 -38 -94.5s-19.5 -56.167 -27.5 -87.5s-10 -54.333 -6 -69c5.33301 -17.333 13.5 -30.333 24.5 -39s21.5 -13.667 31.5 -15s18.833 -5.16602 26.5 -11.499
s11.5 -16.5 11.5 -30.5c-3.33301 -0.666992 -6.33301 -1.33398 -9 -2.00098s-4.83398 -1.16699 -6.50098 -1.5s-3.33398 -0.833008 -5.00098 -1.5s-2.66699 -1 -3 -1s-1.33301 -0.166992 -3 -0.5s-2.66699 -0.5 -3 -0.5h-4h-5h-7h-9.5l-311 -6
c-7.33301 -0.666992 -12.666 -1 -15.999 -1s-6 0.333008 -8 1s-3.33301 1.16699 -4 1.5s-1.83398 1.5 -3.50098 3.5s-3.5 3.66699 -5.5 5zM326.001 1391c10 19.333 40.501 53.667 91.501 103s87.833 83 110.5 101c12 8.66699 23.167 18 33.5 28s19.166 17 26.499 21
s19 7.66699 35 11h135c15.333 -3.33301 26.666 -7 33.999 -11s15.833 -11 25.5 -21s20.5 -19.333 32.5 -28c22.667 -16.667 59.834 -50 111.501 -100s82.834 -84.667 93.501 -104l-72 -15c-6.66699 3.33301 -46.834 25.5 -120.501 66.5l-162.5 89.5
c-6 -2.66699 -33.333 -18.5 -82 -47.5s-95 -54.833 -139 -77.5s-71.333 -33 -82 -31zM481.002 551.002l346 -4l-153 371l-33 79z" />
    <glyph glyph-name="Adieresis" unicode="&#xc4;" horiz-adv-x="1370" 
d="M-10 55c24.667 5.33301 47.333 14.332 68 26.999s38.167 26.167 52.5 40.5s28.333 32.833 42 55.5s24.667 43 33 61s18.166 40.667 29.499 68l209 510c16.667 42 53.167 122.333 109.5 241s94.833 203.667 115.5 255h80c84.667 -172.667 136.667 -281.334 156 -326.001
l178 -420c99.333 -210 156.666 -332.667 171.999 -368l20.5 -37.5c8.33301 -15.667 14.333 -26.5 18 -32.5s9.33398 -13.833 17.001 -23.5s15.667 -16.667 24 -21s19.166 -8.83301 32.499 -13.5s29.333 -8.66699 48 -12l-6 -51l-494 -10l-27 8l-2 35
c48 9.33301 80 19.333 96 30c40.667 25.333 50.334 69.333 29.001 132c-10 28.667 -25.5 66.167 -46.5 112.5s-36.167 83.833 -45.5 112.5l-498 -2c-76 -166 -108.667 -269.667 -98 -311c4.66699 -18 12.334 -31.5 23.001 -40.5s21.167 -14.167 31.5 -15.5
s19.333 -5.16602 27 -11.499s11.167 -16.166 10.5 -29.499c-7.33301 -2 -12.333 -3.5 -15 -4.5s-5.5 -1.66699 -8.5 -2s-5.16699 -0.5 -6.5 -0.5s-4.33301 0.166992 -9 0.5s-10 0.5 -16 0.5l-311 -6c-17.333 -0.666992 -27 0 -29 2c-2.66699 4 -4.66699 6.66699 -6 8z
M344.999 1512c0.666992 15.333 5.99902 30.668 15.999 46.001s24 28.333 42 39c34.667 19.333 65 24.666 91 15.999s47 -28.334 63 -59.001c18 -32.667 22.667 -66 14 -100c-2 -7.33301 -4.16699 -13.666 -6.5 -18.999s-4.33301 -9.5 -6 -12.5s-4.5 -6 -8.5 -9s-7 -5 -9 -6
l-12.5 -6c-6.33301 -3 -11.166 -5.16699 -14.499 -6.5c-18 -8.66699 -35.833 -13.167 -53.5 -13.5s-33.5 3.5 -47.5 11.5s-26.667 18 -38 30s-19.333 26 -24 42s-6.66699 31.667 -6 47zM478.998 547.001l344 -6l-153 372l-31 78zM829.498 1543
c10.333 45.333 34.166 72.334 71.499 81.001c54.667 12.667 97.334 2.5 128.001 -30.5s41 -71.333 31 -115s-37.667 -72.167 -83 -85.5c-54 -16 -94.667 -6.33301 -122 29s-35.833 75.666 -25.5 120.999z" />
    <glyph glyph-name="Aring" unicode="&#xc5;" horiz-adv-x="1372" 
d="M0 53c30 6.66699 56.6729 17.4961 80.0059 32.4961s43.666 34.833 60.999 59.5s31.666 48 42.999 70s23.666 50 36.999 84l205 502c16 40.667 51.5 118.5 106.5 233.5s92.5 197.5 112.5 247.5l80 2c73.333 -146.667 124 -253 152 -319l176 -412l166 -360l23.5 -42.5
c10.333 -19 17.5 -31.167 21.5 -36.5s11.167 -13 21.5 -23s22.333 -17.167 36 -21.5s31.167 -8.5 52.5 -12.5l-4 -49l-483 -10l-27 6l-2 35c50 8.66699 83.667 19.334 101 32.001c35.333 26 42.666 68.667 21.999 128c-10.667 30 -26.334 68 -47.001 114s-35.667 81 -45 105
h-486l-12 -28l-15.5 -36.5l-18 -42.5c-7.66699 -18 -13.667 -33.167 -18 -45.5l-15.5 -46c-6 -18.333 -10 -32.666 -12 -42.999s-4.16699 -22.666 -6.5 -36.999s-1.83301 -23.833 1.5 -28.5c4 -18 11.333 -31.333 22 -40s21 -13.5 31 -14.5s18.833 -4.66699 26.5 -11
s11.167 -16.166 10.5 -29.499c-4 -0.666992 -8.33301 -1.66699 -13 -3s-7.16699 -2 -7.5 -2s-2 -0.166992 -5 -0.5s-4.83301 -0.5 -5.5 -0.5h-8h-14l-305 -6c-12.667 0.666992 -19.667 0.5 -21 -0.5s-3.33301 0 -6 3s-5.33398 5.5 -8.00098 7.5zM479.006 534.996l338 -7
l-149 365l-31 78zM545.506 1515c13 57.333 42.833 91.668 89.5 103.001c42 10 79.5 8.16699 112.5 -5.5s56 -34 69 -61s20.167 -55.667 21.5 -86s-7.66699 -58.833 -27 -85.5s-46 -45 -80 -55c-68 -19.333 -119.167 -6.83301 -153.5 37.5s-45 95.166 -32 152.499z
M605.506 1449c5 -15.333 13.166 -29.668 24.499 -43.001s25.833 -21.333 43.5 -24s36.167 0.333008 55.5 9l10 5c4 2 6.83301 3.5 8.5 4.5s3.83398 2.5 6.50098 4.5s4.5 4 5.5 6s2.33301 5 4 9s3.16699 8.66699 4.5 14c6.66699 24.667 4 49 -8 73c-28 50 -66.333 61 -115 33
c-18 -10.667 -30.333 -24.667 -37 -42s-7.5 -33.666 -2.5 -48.999z" />
    <glyph glyph-name="AE" unicode="&#xc6;" horiz-adv-x="1769" 
d="M-25 8l1.99902 39.0039c31.333 6.66699 59.833 17.667 85.5 33s49.5 36.166 71.5 62.499s40 50.166 54 71.499s31.333 50.333 52 87l278 508l22 39.5l29.5 52.5l33.5 61c12.667 23.333 23.834 44.833 33.501 64.5s19.5 40.834 29.5 63.501s17.167 41.834 21.5 57.501
s7.16602 31.167 8.49902 46.5s-1.33398 25.666 -8.00098 30.999c-2.66699 4.66699 -12.167 10.834 -28.5 18.501s-32 14.5 -47 20.5s-22.5 9.33301 -22.5 10v33c65.333 -0.666992 176.166 -3.66699 332.499 -9s292 -7.66602 407 -6.99902s227.5 6 337.5 16l12 -244l-45 -6
l-19.5 40.5l-16 34c-3 6.33301 -7.66699 14.333 -14 24s-12.166 16.167 -17.499 19.5s-12.666 7.16602 -21.999 11.499s-20 7 -32 8s-26.333 1.5 -43 1.5c-192 4 -290 6 -294 6v-454c20 -6 40.333 -9 61 -9c10.667 -0.666992 26.167 -1.33398 46.5 -2.00098
s35.5 -1.33398 45.5 -2.00098h47c84.667 2.66699 142 15 172 37c6.66699 5.33301 12.167 11 16.5 17s7.33301 12 9 18s2.66699 11 3 15s0.166016 8.66699 -0.500977 14s-1 8.66602 -1 9.99902l43 -4l-10 -338l-29 -4c-22.667 79.333 -71 116 -145 110
c-90 4.66699 -170.667 6 -242 4v-503l321 4c44 8 78.833 28.167 104.5 60.5s46.834 74.166 63.501 125.499l37 2l-69 -313h-852l-2 51c12.667 6.66699 32.334 14.5 59.001 23.5s46.334 16.833 59.001 23.5c8 16.667 14.5 42.667 19.5 78s7.5 66.666 7.5 93.999
c3.33301 99.333 2.66602 218 -2.00098 356h-389l-107 -196c-32.667 -51.333 -65.334 -109.833 -98.001 -175.5s-47 -111.834 -43 -138.501c2 -18 7.66699 -31.333 17 -40s18.833 -13.667 28.5 -15s17.834 -5.16602 24.501 -11.499s8.66699 -16.166 6 -29.499
c-16.667 -4 -33.667 -6 -51 -6l-316 -6c-12.667 0.666992 -20 0.666992 -22 0s-4.16699 0.5 -6.5 3.5s-4.5 5.16699 -6.5 6.5zM617.999 735.004h318c0 32.667 0.333008 80.667 1 144s1 108.333 1 135v188l-61 6l-119 -223z" />
    <glyph glyph-name="Egrave" unicode="&#xc8;" horiz-adv-x="1026" 
d="M33 51c12 6 31.834 13.3301 59.501 21.9971s48.834 17 63.501 25c15.333 37.333 24.666 96 27.999 176c3.33301 101.333 2.66602 223.666 -2.00098 366.999c-2 35.333 -3 73.333 -3 114s0.5 86 1.5 136s1.5 88.333 1.5 115c0 12 0.333008 28.833 1 50.5s1 38.167 1 49.5
s-0.666992 25 -2 41s-3.83301 28.5 -7.5 37.5s-9.16699 17.833 -16.5 26.5s-16.333 15.334 -27 20.001c-12.667 5.33301 -24 9.5 -34 12.5s-16.667 4.5 -20 4.5s-6.5 0.666992 -9.5 2s-4.83301 2.66602 -5.5 3.99902l-5 10l4 45
c418.667 -15.333 705.667 -16.666 861 -3.99902l12 -250l-43 -4l-23 46.5c-9.33301 19 -15.833 31.833 -19.5 38.5s-9.5 15.167 -17.5 25.5s-16.167 17 -24.5 20s-19.333 5.83301 -33 8.5s-30.5 4 -50.5 4c-131.333 0 -231 0.666992 -299 2v-426c18 -5.33301 39 -8 63 -8
c47.333 -4.66699 104.5 -5.16699 171.5 -1.5s115.167 15.834 144.5 36.501c6 4.66699 11 9.5 15 14.5s7 9.66699 9 14s3.16699 9 3.5 14s0.333008 8.83301 0 11.5s-1 6.33398 -2 11.001s-1.5 7.33398 -1.5 8.00098l45 -2l-10 -346l-31 -4
c-19.333 81.333 -68.333 119 -147 113c-90.667 4.66699 -172 6 -244 4v-514l328 6c79.333 14.667 136 78 170 190l37 2l-68 -319l-870 -2zM115.001 1649l14.0029 -31c9.33301 -8 67.166 -38 173.499 -90s172.833 -83.333 199.5 -94l42.5 -16.5
c17.667 -7 29.834 -11.5 36.501 -13.5s18.167 -4.33301 34.5 -7s36.5 -4.66699 60.5 -6c-6.66699 18.667 -34 53.334 -82 104.001s-83 84 -105 100c-10.667 8 -20.167 16.833 -28.5 26.5s-14.833 16.167 -19.5 19.5s-14.334 6.66602 -29.001 9.99902s-36.667 6 -66 8
c-4.66699 0 -17.834 0.666992 -39.501 2s-39.334 2 -53.001 2h-50c-19.667 0 -37 -1.16699 -52 -3.5s-27.167 -5.83301 -36.5 -10.5z" />
    <glyph glyph-name="Eacute" unicode="&#xc9;" horiz-adv-x="1015" 
d="M33 51c12 6 31.835 13.333 59.502 22s48.834 17 63.501 25c14 36.667 22.667 94.667 26 174c3.33301 105.333 2.66602 229.666 -2.00098 372.999c-1.33301 34.667 -2 72.167 -2 112.5s0.333008 85.5 1 135.5s1 88.333 1 115c0 11.333 0.333008 25.833 1 43.5
s1 31.834 1 42.501s-0.166992 22.834 -0.5 36.501s-1.5 25 -3.5 34s-5 18 -9 27s-9.33301 16.5 -16 22.5s-14.667 11 -24 15c-14.667 6.66699 -27.334 11.5 -38.001 14.5s-17.334 4.83301 -20.001 5.5s-4.83398 1.66699 -6.50098 3s-4.16699 5.33301 -7.5 12l4 43
c448 -12.667 732 -13.334 852 -2.00098l13 -250l-43 -2l-19.5 40.5l-16 34c-3 6.33301 -7.83301 14.5 -14.5 24.5s-12.667 16.667 -18 20s-12.666 7.16602 -21.999 11.499s-20 7.16602 -32 8.49902s-26.667 2 -44 2c-34 0 -83.5 0.333008 -148.5 1s-114.5 1 -148.5 1v-424
c24 -5.33301 45 -8 63 -8c5.33301 0 20.333 -0.333008 45 -1s41.834 -1 51.501 -1s25.5 0.166992 47.5 0.5s39 1.33301 51 3s26.333 3.83398 43 6.50098s30.834 6.5 42.501 11.5s22.167 10.833 31.5 17.5c9.33301 6 16.166 13 20.499 21s6.66602 14.5 6.99902 19.5
s0.166016 11.167 -0.500977 18.5l-1 12l43 -2l-8 -342l-33 -4c-19.333 80 -67.666 117 -144.999 111c-88.667 4.66699 -169.334 6 -242.001 4v-518l324 6c44.667 7.33301 79.834 27.333 105.501 60s47.167 75.334 64.5 128.001l37 2l-68 -317l-862 -2zM317.002 1391
c6 18 32.9961 52.168 80.9961 102.501s83.333 84.166 106 101.499c10.667 8 20.5 17 29.5 27s15.833 16.5 20.5 19.5s14.334 6.16699 29.001 9.5s36.667 6 66 8c5.33301 0 18.833 0.666992 40.5 2s39.667 2 54 2h51c19.667 0 37 -1.16699 52 -3.5
s27.167 -5.83301 36.5 -10.5l-17 -31c-8 -8 -65.167 -37.833 -171.5 -89.5s-173.166 -83.167 -200.499 -94.5l-36.5 -15c-14.333 -6 -24.166 -10 -29.499 -12s-13.666 -4.33301 -24.999 -7s-23.5 -4.66699 -36.5 -6s-29.5 -2.33301 -49.5 -3z" />
    <glyph glyph-name="Iacute" unicode="&#xcd;" horiz-adv-x="620" 
d="M49 41c12 8 18.168 12.0039 18.501 12.0039s6.5 1.33301 18.5 4c39.333 16.667 64 36.667 74 60c13.333 33.333 20 72 20 116l8 807c0 40 -3.33301 81 -10 123c-11.333 42 -29.666 70 -54.999 84c-11.333 6 -24.166 10.333 -38.499 13s-23.5 6.5 -27.5 11.5
s-6 16.833 -6 35.5c25.333 4 63.5 6 114.5 6s97.667 -0.666992 140 -2s93.833 -3.33301 154.5 -6s97.667 -4.33398 111 -5.00098l-2 -43c-2.66699 -4 -7.33398 -5.33301 -14.001 -4s-16 1.33301 -28 0s-21.667 -5.33301 -29 -12
c-17.333 -16.667 -30.166 -40.834 -38.499 -72.501s-12.833 -59.834 -13.5 -84.501s0 -60.834 2 -108.501s3 -78.5 3 -92.5l4 -729c2.66699 -30 9.66699 -54 21 -72s22.666 -29.167 33.999 -33.5s24.166 -7.83301 38.499 -10.5s23.166 -5 26.499 -7v-37h-122l-402 10z
M68.001 1384c6.66699 18.667 33.668 53.334 81.001 104.001s81.666 83 102.999 97c10.667 8 21.5 18.5 32.5 31.5s22.833 21.167 35.5 24.5s37.667 6.66602 75 9.99902c6.66699 0 23.5 0.333008 50.5 1s49.5 1 67.5 1s38.167 -1 60.5 -3s39.5 -5.33301 51.5 -10l-17 -32
c-8 -8 -64.333 -37.333 -169 -88s-171 -81.667 -199 -93c-6.66699 -2.66699 -15.5 -6.5 -26.5 -11.5s-18.333 -8.16699 -22 -9.5l-17.5 -6.5c-8 -3 -14.333 -5 -19 -6s-11.667 -2.16699 -21 -3.5s-19 -2.5 -29 -3.5s-22.333 -1.83301 -37 -2.5z" />
    <glyph glyph-name="Oacute" unicode="&#xd3;" horiz-adv-x="1613" 
d="M115 811c24.667 124 86.165 234.833 184.498 332.5s209.5 158.834 333.5 183.501c44.667 7.33301 100.334 9.66602 167.001 6.99902s121.667 -8.33398 165 -17.001c210 -46.667 351.333 -136 424 -268c78 -138.667 118.167 -272.167 120.5 -400.5
s-34.5 -261.166 -110.5 -398.499c-10 -18.667 -36 -50.667 -78 -96c-82 -93.333 -198.667 -150 -350 -170c-67.333 -8 -147.5 -7.83301 -240.5 0.5s-167.833 22.5 -224.5 42.5c-33.333 13.333 -70.833 33.5 -112.5 60.5s-73.167 52.5 -94.5 76.5
c-169.333 197.333 -230.666 413 -183.999 647zM394.998 700c0 -28 2.83398 -71.499 8.50098 -130.499s9.16699 -102.833 10.5 -131.5c19.333 -72 48.666 -134.667 87.999 -188c36 -52 81.667 -93 137 -123c51.333 -27.333 108.833 -41.333 172.5 -42
s121.5 12.666 173.5 39.999c12 17.333 26.5 33.166 43.5 47.499s32.667 27 47 38s29 24 44 39s29.333 35.667 43 62s25.5 58.5 35.5 96.5c19.333 66 29 141.667 29 227c0 87.333 -10.333 169.333 -31 246c-18 67.333 -47.333 130 -88 188
c-38.667 52.667 -85 93.667 -139 123c-48 22 -107.333 33 -178 33c-66 1.33301 -122.167 -8.66699 -168.5 -30s-88.5 -58 -126.5 -110c-36 -50.667 -64 -108.667 -84 -174c-0.666992 -18.667 -3.66699 -51.667 -9 -99s-8 -84.666 -8 -111.999zM701.999 1407
c6 18.667 32.666 52.834 79.999 102.501s82.333 83.167 105 100.5c10.667 8 20.5 17 29.5 27s15.833 16.5 20.5 19.5s14.5 6 29.5 9s37.5 5.5 67.5 7.5c4 0 16.833 0.666992 38.5 2s39.334 2 53.001 2h50c19.667 0 37 -1.16699 52 -3.5s27.167 -5.83301 36.5 -10.5l-15 -31
c-8 -8 -64.667 -37.5 -170 -88.5s-172 -82.167 -200 -93.5l-31.5 -13.5c-13 -5.66699 -21.833 -9.33398 -26.5 -11.001s-11.667 -4 -21 -7s-17.833 -5 -25.5 -6s-17.5 -2 -29.5 -3s-26.333 -1.83301 -43 -2.5z" />
    <glyph glyph-name="Odieresis" unicode="&#xd6;" horiz-adv-x="1611" 
d="M115 811c-47.333 -236.667 12.668 -452.329 180.001 -646.996c21.333 -25.333 52.666 -51.5 93.999 -78.5s79 -46.5 113 -58.5c56.667 -20 131.5 -34.167 224.5 -42.5s173.167 -8.5 240.5 -0.5c151.333 20 268 76.667 350 170l25 27.5c12 13 22.5 24.833 31.5 35.5
s16.833 21.667 23.5 33c76 137.333 113.167 270.166 111.5 398.499s-40.834 261.166 -117.501 398.499c-41.333 72.667 -99.5 131 -174.5 175s-158.833 75.667 -251.5 95c-41.333 9.33301 -96.666 15.166 -165.999 17.499s-124.666 -0.166992 -165.999 -7.5
c-124.667 -24.667 -236.334 -85.834 -335.001 -183.501s-159.667 -208.5 -183 -332.5zM389.001 700.005c0 26 3.49512 62.333 10.4951 109s10.5 80.667 10.5 102c19.333 65.333 48 123.333 86 174c38 52 80.167 88.5 126.5 109.5s102.5 30.5 168.5 28.5
c73.333 0 132.666 -9.66699 177.999 -29c54.667 -28.667 100.334 -70.334 137.001 -125.001c36.667 -48 67.334 -110.667 92.001 -188c16.667 -60 25 -142 25 -246c0 -82.667 -5.16699 -152.5 -15.5 -209.5s-28.166 -104.167 -53.499 -141.5s-46.666 -64 -63.999 -80
s-45.666 -37.333 -84.999 -64c-10.667 -7.33301 -18.667 -13 -24 -17c-52 -27.333 -110 -40.666 -174 -39.999s-122 15.334 -174 44.001c-56 30.667 -101 71.667 -135 123c-38 49.333 -67.333 112.666 -88 189.999c-1.33301 28.667 -5.16602 72.167 -11.499 130.5
s-9.5 101.5 -9.5 129.5zM441.996 1541.5c10 43 37.334 71.167 82.001 84.5c47.333 14.667 86.166 9.16699 116.499 -16.5s46.166 -58.5 47.499 -98.5c0 -26.667 -8.16699 -50.667 -24.5 -72s-36.166 -34 -59.499 -38c-56 -13.333 -99.5 -4 -130.5 28s-41.5 69.5 -31.5 112.5
zM930.997 1498.5c-6.66699 22.333 -4.99805 45.334 5.00195 69.001s27.667 41.834 53 54.501c25.333 12 50.166 16.167 74.499 12.5s44.166 -14.334 59.499 -32.001s26.5 -37.167 33.5 -58.5s5.83301 -43.833 -3.5 -67.5s-26.333 -42.834 -51 -57.501
c-26.667 -14 -52.5 -19.333 -77.5 -16s-45.167 14.5 -60.5 33.5s-26.333 39.667 -33 62z" />
    <glyph glyph-name="Oslash" unicode="&#xd8;" horiz-adv-x="1611" 
d="M119 815c23.333 122.667 84.1641 232.834 182.497 330.501s209.5 158.834 333.5 183.501c42.667 7.33301 98.334 9.83301 167.001 7.5s124.334 -8.16602 167.001 -17.499c93.333 -20 176 -51.333 248 -94l165 184l95 -84l-156 -180c28.667 -28.667 52.667 -60 72 -94
c76.667 -136.667 114.334 -269.834 113.001 -399.501s-41.333 -262.167 -120 -397.5c-4.66699 -9.33301 -10.5 -18.833 -17.5 -28.5s-13.167 -17.667 -18.5 -24s-12.5 -14.333 -21.5 -24s-15.5 -16.834 -19.5 -21.501c-82.667 -92.667 -198.667 -148.667 -348 -168
c-66 -8 -145.833 -8 -239.5 0s-169.5 21.667 -227.5 41c-27.333 9.33301 -59 25.666 -95 48.999l-135 -154l-90 58l141 159c-9.33301 7.33301 -18 16.333 -26 27c-81.333 94 -136.5 193.833 -165.5 299.5s-30.5 221.5 -4.5 347.5zM384.998 705
c0 -177.333 23.3311 -309.332 69.998 -395.999l645 774c-38 50 -80.333 87 -127 111c-43.333 20.667 -102.666 32.334 -177.999 35.001c-66 1.33301 -122.167 -8.83398 -168.5 -30.501s-89.166 -58.834 -128.499 -111.501c-32.667 -44 -59.667 -104 -81 -180
s-32 -143.333 -32 -202zM517.996 215.001c33.333 -35.333 69.667 -64 109 -86c59.333 -32 119.5 -45.833 180.5 -41.5s117.5 20.666 169.5 48.999s97.333 66.833 136 115.5s65.667 102 81 160c13.333 50.667 20 126.334 20 227.001c0 88.667 -10 170 -30 244l-23 80z" />
    <glyph glyph-name="Uacute" unicode="&#xda;" horiz-adv-x="1505" 
d="M37 1257l2.00098 51.998l555 -2l-2 -60c-6.66699 -1.33301 -16.5 -3 -29.5 -5s-21.667 -3.5 -26 -4.5s-10.833 -2.83301 -19.5 -5.5s-15 -5.66699 -19 -9s-8.83301 -7.83301 -14.5 -13.5s-11.167 -12.834 -16.5 -21.501c-10 -18 -16 -55.167 -18 -111.5
s-1.66699 -111.166 1 -164.499s6.33398 -113.166 11.001 -179.499s7.33398 -105.166 8.00098 -116.499l3.5 -60.5l3.5 -61.5c0.666992 -12 2.33398 -29.833 5.00098 -53.5s5.66699 -42.834 9 -57.501s8.16602 -31.834 14.499 -51.501s13.5 -38.167 21.5 -55.5
c21.333 -48 53.5 -86.5 96.5 -115.5s96.167 -41.5 159.5 -37.5c45.333 1.33301 99.333 13.666 162 36.999c44 16 71 28 81 36c10.667 8 24 23.333 40 46c22 32.667 39.167 83.334 51.5 152.001s19.833 134.5 22.5 197.5s4.66699 135.167 6 216.5s3.33301 137 6 167
c3.33301 42.667 0.666016 105.334 -8.00098 188.001c-18 46.667 -57 74.667 -117 84l2 58l434 -7c5.33301 -12 4.66602 -25.667 -2.00098 -41c-2.66699 -1.33301 -10.667 -4.16602 -24 -8.49902s-24.166 -8.66602 -32.499 -12.999s-18.333 -10.5 -30 -18.5
s-21.5 -18 -29.5 -30s-14.333 -26 -19 -42c-9.33301 -39.333 -12 -118 -8 -236c2.66699 -49.333 1.5 -127.166 -3.5 -233.499s-10.833 -189.5 -17.5 -249.5c-17.333 -154 -74.333 -271.667 -171 -353s-219.667 -118 -369 -110c-97.333 2 -195 25.167 -293 69.5
s-169 103.166 -213 176.499c-14.667 23.333 -27 56.5 -37 99.5s-17.833 93.167 -23.5 150.5s-9.83398 107.666 -12.501 150.999s-5 95.833 -7 157.5s-3.33301 99.5 -4 113.5c-0.666992 10.667 -1.5 44.667 -2.5 102s-3.5 103 -7.5 137c-3.33301 40.667 -8 65.667 -14 75
c-6.66699 10 -26.334 23 -59.001 39zM641.001 1372c6.66699 18.667 33.168 52.833 79.501 102.5s79.833 81.834 100.5 96.501c10.667 8 20.334 16.667 29.001 26s15.167 15.5 19.5 18.5s13.666 6 27.999 9s36.166 5.5 65.499 7.5c4.66699 0 17.5 0.666992 38.5 2
s38.333 2 52 2h49c19 0 36 -1.16699 51 -3.5s27.167 -5.83301 36.5 -10.5l-16 -31c-7.33301 -7.33301 -63.666 -36.333 -168.999 -87s-170 -80.334 -194 -89.001c-6.66699 -2.66699 -15.5 -6.5 -26.5 -11.5s-18.333 -8.16699 -22 -9.5l-17.5 -6.5c-8 -3 -14.333 -5 -19 -6
s-11.5 -2.16699 -20.5 -3.5s-18.333 -2.5 -28 -3.5s-21.834 -1.83301 -36.501 -2.5z" />
    <glyph glyph-name="Udieresis" unicode="&#xdc;" horiz-adv-x="1519" 
d="M37 1307l557.002 2.00098v-60c-8.66699 -3.33301 -23.334 -7.16602 -44.001 -11.499s-37.167 -10.666 -49.5 -18.999s-22.833 -21.833 -31.5 -40.5c-6 -14 -9 -66.167 -9 -156.5s1 -161.833 3 -214.5l39 -438c20 -50 35.833 -86.333 47.5 -109s29 -47 52 -73
s51.333 -43 85 -51s75.834 -10.333 126.501 -7c86 4 157 31.833 213 83.5s85.333 117.5 88 197.5l25 727c-0.666992 25.333 -5.66699 44.666 -15 57.999s-24.333 24.666 -45 33.999c-15.333 6 -30.666 11.667 -45.999 17s-25 8.16602 -29 8.49902
s-8.33301 3.16602 -13 8.49902s-7.16699 10.333 -7.5 15s-1.16602 15 -2.49902 31l502 -4c-12.667 -6.66699 -19 -16.167 -19 -28.5s-2.66699 -20.833 -8 -25.5c-10.667 -6 -23.834 -12 -39.501 -18s-27.834 -10.833 -36.501 -14.5s-18.167 -11 -28.5 -22
s-17.833 -25 -22.5 -42s-8.16699 -41.5 -10.5 -73.5s-2.83301 -71.333 -1.5 -118c0 -221.333 -4.66699 -384.666 -14 -489.999c-8 -90.667 -27.667 -169.667 -59 -237s-69.5 -119.333 -114.5 -156s-95.167 -64.834 -150.5 -84.501s-111.5 -29.667 -168.5 -30
s-113 4.83398 -168 15.501s-104.833 25.667 -149.5 45s-82 40.666 -112 63.999c-23.333 18.667 -50.666 44.167 -81.999 76.5s-51 57.5 -59 75.5c-24 70 -39.833 141 -47.5 213s-11.167 160.833 -10.5 266.5s0 179.834 -2 222.501c-1.33301 35.333 -1.5 66.5 -0.5 93.5
s1.33301 50.333 1 70s-2.33301 36.334 -6 50.001s-10.334 25 -20.001 34s-23.5 16.5 -41.5 22.5c-14 4.66699 -24.5 8 -31.5 10s-13.667 4.83301 -20 8.5s-10.5 6.16699 -12.5 7.5s-4.16699 4.83301 -6.5 10.5s-3.33301 10 -3 13s0.166016 9.16699 -0.500977 18.5
s-1.33398 17.666 -2.00098 24.999zM443.502 1524.5c10.333 42.333 37.833 70.1689 82.5 83.502c52 15.333 91 5.66602 117 -29.001s34.167 -74.167 24.5 -118.5s-32.167 -70.5 -67.5 -78.5c-54.667 -12 -97 -1.83301 -127 30.5s-39.833 69.666 -29.5 111.999zM918.002 1546
c2.66699 8.66699 5.00098 15.4971 7.00098 20.4971s5 9.33301 9 13s7.16699 6.33398 9.5 8.00098s6.83301 4 13.5 7s12 5.5 16 7.5c24 11.333 47.667 15.333 71 12s42.333 -13.666 57 -30.999s25.167 -36.166 31.5 -56.499s5 -41.833 -4 -64.5s-25.5 -41 -49.5 -55
c-64.667 -36 -114.334 -22.333 -149.001 41c-16 35.333 -20 68 -12 98z" />
    <glyph glyph-name="germandbls" unicode="&#xdf;" horiz-adv-x="1183" 
d="M16 825l8.99805 64.0029c24.667 -0.666992 48.834 2.5 72.501 9.5s39.167 12.5 46.5 16.5s20 11.667 38 23c-1.33301 42.667 4.5 89.834 17.5 141.501s34 103.5 63 155.5s63.333 98.333 103 139s88.334 71.334 146.001 92.001s118.5 25.667 182.5 15
c70 -8.66699 127.833 -39 173.5 -91s62.5 -114 50.5 -186c-6 -41.333 -18.5 -80 -37.5 -116s-38.5 -64.5 -58.5 -85.5s-40.833 -45.167 -62.5 -72.5s-37.167 -52.666 -46.5 -75.999c-16.667 -48.667 38 -117.667 164 -207c31.333 -22.667 61.166 -47.334 89.499 -74.001
s56.5 -58.334 84.5 -95.001s49.333 -73.167 64 -109.5s20.667 -75.666 18 -117.999s-17 -82.166 -43 -119.499c-27.333 -40.667 -56.833 -72.167 -88.5 -94.5s-66.167 -36.333 -103.5 -42s-71.666 -7.83398 -102.999 -6.50098s-70.666 4.16602 -117.999 8.49902
s-86.666 6.16602 -117.999 5.49902v209c-0.666992 8.66699 -2.33398 19.667 -5.00098 33s-4.16699 23.166 -4.5 29.499s0.166992 13 1.5 20s5 11.833 11 14.5s14.667 4.33398 26 5.00098c32.667 -78.667 56.667 -130 72 -154c46.667 -74.667 104.667 -98.334 174 -71.001
c44 16.667 75.5 38.334 94.5 65.001s25 56 18 88s-25.5 65.667 -55.5 101c-24 29.333 -72.667 79.333 -146 150c-61.333 45.333 -108.833 91.166 -142.5 137.499s-52.167 88.5 -55.5 126.5c-0.666992 14.667 0.833008 29.667 4.5 45s10.667 33 21 53s20 37.833 29 53.5
s22.5 38 40.5 67l44 72.5c6.66699 13.333 11.667 23.666 15 30.999s8.5 19.833 15.5 37.5s12.167 32.334 15.5 44.001s6.83301 26.334 10.5 44.001s5 32.667 4 45s-3.33301 25.666 -7 39.999s-10.167 26 -19.5 35s-21.833 17.167 -37.5 24.5s-34.167 12 -55.5 14
c-32.667 4 -63 -3.5 -91 -22.5s-51 -44.5 -69 -76.5s-32.333 -66.333 -43 -103s-16.667 -72.334 -18 -107.001c-2 -147.333 -2.66699 -261.333 -2 -342s3 -204 7 -370s6.33301 -281.667 7 -347c-38 0 -163 2 -375 6l-2 37c12 8 18.667 12 20 12
c2 -0.666992 7.66699 0.666016 17 3.99902c37.333 12.667 62.666 32.667 75.999 60c12 30 18 68.667 18 116l4 594z" />
    <glyph glyph-name="agrave" unicode="&#xe0;" horiz-adv-x="1382" 
d="M283 1303l2 -1297h813v1294z" />
    <glyph glyph-name="aacute" unicode="&#xe1;" horiz-adv-x="1374" 
d="M283 1303l2 -1297h813v1294z" />
    <glyph glyph-name="acircumflex" unicode="&#xe2;" horiz-adv-x="1372" 
d="M283 1303l2 -1297h813v1294z" />
    <glyph glyph-name="adieresis" unicode="&#xe4;" horiz-adv-x="1370" 
d="M283 1303l2 -1297h813v1294z" />
    <glyph glyph-name="aring" unicode="&#xe5;" horiz-adv-x="1372" 
d="M283 1303l2 -1297h813v1294z" />
    <glyph glyph-name="ae" unicode="&#xe6;" horiz-adv-x="1769" 
d="M283 1303l2 -1297h813v1294z" />
    <glyph glyph-name="egrave" unicode="&#xe8;" horiz-adv-x="1026" 
d="M283 1303l2 -1297h813v1294z" />
    <glyph glyph-name="eacute" unicode="&#xe9;" horiz-adv-x="1015" 
d="M283 1303l2 -1297h813v1294z" />
    <glyph glyph-name="iacute" unicode="&#xed;" horiz-adv-x="620" 
d="M283 1303l2 -1297h813v1294z" />
    <glyph glyph-name="oacute" unicode="&#xf3;" horiz-adv-x="1613" 
d="M283 1303l2 -1297h813v1294z" />
    <glyph glyph-name="odieresis" unicode="&#xf6;" horiz-adv-x="1611" 
d="M283 1303l2 -1297h813v1294z" />
    <glyph glyph-name="oslash" unicode="&#xf8;" horiz-adv-x="1611" 
d="M283 1303l2 -1297h813v1294z" />
    <glyph glyph-name="uacute" unicode="&#xfa;" horiz-adv-x="1505" 
d="M283 1303l2 -1297h813v1294z" />
    <glyph glyph-name="udieresis" unicode="&#xfc;" horiz-adv-x="1519" 
d="M283 1303l2 -1297h813v1294z" />
    <glyph glyph-name="uni2000" unicode="&#x2000;" horiz-adv-x="838" 
 />
    <glyph glyph-name="uni2001" unicode="&#x2001;" horiz-adv-x="1677" 
 />
    <glyph glyph-name="uni2002" unicode="&#x2002;" horiz-adv-x="838" 
 />
    <glyph glyph-name="uni2003" unicode="&#x2003;" horiz-adv-x="1677" 
 />
    <glyph glyph-name="uni2004" unicode="&#x2004;" horiz-adv-x="559" 
 />
    <glyph glyph-name="uni2005" unicode="&#x2005;" horiz-adv-x="419" 
 />
    <glyph glyph-name="uni2006" unicode="&#x2006;" horiz-adv-x="279" 
 />
    <glyph glyph-name="uni2007" unicode="&#x2007;" horiz-adv-x="279" 
 />
    <glyph glyph-name="uni2008" unicode="&#x2008;" horiz-adv-x="209" 
 />
    <glyph glyph-name="uni2009" unicode="&#x2009;" horiz-adv-x="335" 
 />
    <glyph glyph-name="uni200A" unicode="&#x200a;" horiz-adv-x="93" 
 />
    <glyph glyph-name="uni2010" unicode="&#x2010;" 
d="M51 483v137.999c12.667 8.66699 92.667 12.334 240 11.001s225 -6 233 -14l2 -135l-14 -6h-35z" />
    <glyph glyph-name="uni2011" unicode="&#x2011;" 
d="M51 483v137.999c12.667 8.66699 92.667 12.334 240 11.001s225 -6 233 -14l2 -135l-14 -6h-35z" />
    <glyph glyph-name="figuredash" unicode="&#x2012;" 
d="M51 483v137.999c12.667 8.66699 92.667 12.334 240 11.001s225 -6 233 -14l2 -135l-14 -6h-35z" />
    <glyph glyph-name="endash" unicode="&#x2013;" horiz-adv-x="1026" 
d="M0 467l-0.000976562 168c38 8.66699 211.333 12.667 520 12s475.334 -4.66699 500.001 -12l6 -168l-43 -6l-104 2z" />
    <glyph glyph-name="emdash" unicode="&#x2014;" horiz-adv-x="2150" 
d="M51 483v137.999c54.667 8.66699 399.667 12.334 1035 11.001s970 -6 1004 -14l9 -135l-60 -6h-151z" />
    <glyph glyph-name="quoteleft" unicode="&#x2018;" horiz-adv-x="456" 
d="M86 948l-0.00195312 80c2.66699 25.333 7.33398 49 14.001 71s13.834 40.667 21.501 56s18.5 30.333 32.5 45s25.667 26.167 35 34.5s23.5 17.5 42.5 27.5s32.667 17 41 21s23 10.167 44 18.5l39.5 15.5c6 2 11.5 -0.5 16.5 -7.5s8.33301 -13.5 10 -19.5
s3.16699 -12 4.5 -18c-5.33301 -2 -15.833 -8.66699 -31.5 -20s-33 -25.666 -52 -42.999s-35.333 -37.833 -49 -61.5s-19.834 -45.834 -18.501 -66.501c29.333 0 57 -15 83 -45c2 -2 4.83301 -5.16699 8.5 -9.5s6.33398 -7.33301 8.00098 -9s4 -4.66699 7 -9s5 -7.5 6 -9.5
l5 -10.5c2.33301 -5 3.33301 -8.83301 3 -11.5s0.166992 -7 1.5 -13s1.33301 -11.333 0 -16c-0.666992 -24 -4 -42.167 -10 -54.5s-17 -24.833 -33 -37.5c-31.333 -24 -63.5 -34.333 -96.5 -31s-62.667 17 -89 41s-40.833 51.333 -43.5 82z" />
    <glyph glyph-name="quotedblleft" unicode="&#x201c;" horiz-adv-x="796" 
d="M80 938c-2 42.667 -0.5 81.3369 4.5 116.004s14.167 64.167 27.5 88.5s26.833 45 40.5 62s31.667 32.167 54 45.5s41.166 23.666 56.499 30.999s35 15.666 59 24.999c8 3.33301 14 5.66602 18 6.99902c7.33301 3.33301 13.333 0 18 -10s8.33398 -20.333 11.001 -31v-2
c-5.33301 -2 -15.5 -9 -30.5 -21s-31.833 -27 -50.5 -45s-34.334 -39 -47.001 -63s-18 -46 -16 -66c27.333 0 55.333 -14.333 84 -43c12 -12.667 19.833 -21.334 23.5 -26.001s7.83398 -12.667 12.501 -24s7 -24 7 -38c-0.666992 -22.667 -4 -40.167 -10 -52.5
s-16.333 -24.833 -31 -37.5c-31.333 -25.333 -63.666 -37 -96.999 -35s-63.333 14.667 -90 38s-41.334 50.333 -44.001 81zM430 938.003c-2.66699 51.333 0.330078 96.832 8.99707 136.499s20.5 71.334 35.5 95.001s34.667 44.834 59 63.501s46.5 32.834 66.5 42.501
s43.667 19.834 71 30.501c8.66699 3.33301 15 5.66602 19 6.99902c4 2 8 1.5 12 -1.5s7.33301 -7.83301 10 -14.5s4.66699 -11.834 6 -15.501s2.33301 -7.5 3 -11.5c-5.33301 -2 -15.666 -9 -30.999 -21s-32.166 -27 -50.499 -45s-33.833 -39 -46.5 -63s-17.667 -46 -15 -66
c27.333 0 55.333 -14.333 84 -43c1.33301 -1.33301 4.5 -4.83301 9.5 -10.5s8 -9.33398 9 -11.001s3.33301 -5 7 -10s6 -9 7 -12l4 -12c1.66699 -5 2.66699 -10.167 3 -15.5s0.5 -11 0.5 -17c0 -22.667 -2.83301 -40 -8.5 -52s-16.167 -24.667 -31.5 -38
c-31.333 -25.333 -63.666 -37 -96.999 -35s-63.333 14.667 -90 38s-41.667 50.333 -45 81z" />
    <glyph glyph-name="quotedblright" unicode="&#x201d;" horiz-adv-x="796" 
d="M80 860l0.00195312 2.00098c8 3.33301 23.167 14.166 45.5 32.499s44.833 43.5 67.5 75.5s32.667 61 30 87c-28 0 -56 15 -84 45c-20.667 22.667 -33.334 39.667 -38.001 51c-3.33301 10 -5 21.667 -5 35c0.666992 24.667 3.83398 42.834 9.50098 54.501
s16.167 24.167 31.5 37.5c32 24.667 64.833 36 98.5 34s63.667 -14.5 90 -37.5s40.833 -49.833 43.5 -80.5c2.66699 -50.667 -0.333008 -95.834 -9 -135.501s-20.167 -71.334 -34.5 -95.001s-33.5 -45 -57.5 -64s-45.833 -33.167 -65.5 -42.5s-43.167 -19.666 -70.5 -30.999
c-10.667 -4 -18.334 -7 -23.001 -9c-7.33301 -3.33301 -13.333 0 -18 10s-8.33398 20.333 -11.001 31zM432.002 862.001c8 3.33301 23.166 14.1689 45.499 32.502s44.833 43.5 67.5 75.5s32.667 61 30 87c-29.333 0 -57 15 -83 45c-20.667 22.667 -33.334 39.667 -38.001 51
c-3.33301 10 -5 21.667 -5 35c0 24 3 42 9 54s17.333 24.667 34 38c30.667 24.667 62.5 36 95.5 34s62.833 -14.5 89.5 -37.5s41.334 -49.833 44.001 -80.5c2 -36.667 1 -70.5 -3 -101.5s-9.5 -57.333 -16.5 -79s-17.667 -41.834 -32 -60.501s-27.166 -33.667 -38.499 -45
s-27 -22.833 -47 -34.5s-35.833 -20.167 -47.5 -25.5s-28.167 -12.333 -49.5 -21c-10.667 -4.66699 -18.667 -8 -24 -10c-8.66699 -3.33301 -16 1.16699 -22 13.5s-9 22.166 -9 29.499z" />
    <glyph glyph-name="quotedblbase" unicode="&#x201e;" horiz-adv-x="790" 
d="M57 -195c5.33301 2.66699 15.167 9.66699 29.5 21s30.833 26 49.5 44s34.334 38.833 47.001 62.5s18 45.5 16 65.5c-27.333 0 -55.333 14.333 -84 43c-2 2 -5 5.33301 -9 10s-6.83301 7.83398 -8.5 9.50098s-4.16699 4.83398 -7.5 9.50098s-5.33301 7.83398 -6 9.50098
s-2.33398 5 -5.00098 10s-3.66699 8.83301 -3 11.5s0.333984 7 -0.999023 13s-1 11 1 15c0 24 2.5 41.833 7.5 53.5s15.5 24.5 31.5 38.5c31.333 24 63.333 34.833 96 32.5s62.167 -14.833 88.5 -37.5s41.166 -49 44.499 -79c3.33301 -50.667 0.333008 -95.834 -9 -135.501
s-19.5 -70.5 -30.5 -92.5s-30.667 -43.5 -59 -64.5s-48.833 -34.667 -61.5 -41s-36.334 -16.5 -71.001 -30.5c-11.333 -4.66699 -19.666 -8.33398 -24.999 -11.001c-8.66699 -3.33301 -16 1.16699 -22 13.5s-9 22.166 -9 29.499zM406.001 -195
c19.333 6.66699 49.335 31.1699 90.002 73.5029s59 82.166 55 119.499c-29.333 0 -57.333 14.333 -84 43c-1.33301 1.33301 -4.33301 4.66602 -9 9.99902s-7.5 8.66602 -8.5 9.99902l-7 9c-3.66699 4.66699 -5.83398 8 -6.50098 10s-2.16699 5.16699 -4.5 9.5
s-3.83301 8.33301 -4.5 12s-1.33398 7.83398 -2.00098 12.501s-1 9.66699 -1 15c0.666992 24 4 41.833 10 53.5s17 24.5 33 38.5c30 24 61.333 35 94 33s62.167 -14.667 88.5 -38s40.5 -49.666 42.5 -78.999c3.33301 -50.667 0.333008 -95.834 -9 -135.501
s-19.5 -70.5 -30.5 -92.5s-30.667 -43.5 -59 -64.5s-48.833 -34.667 -61.5 -41s-36.334 -16.5 -71.001 -30.5c-11.333 -4.66699 -19.666 -8.33398 -24.999 -11.001c-6 -2.66699 -11 -1.16699 -15 4.5s-7.66699 13.5 -11 23.5z" />
    <glyph glyph-name="uni202F" unicode="&#x202f;" horiz-adv-x="335" 
 />
    <glyph glyph-name="uni205F" unicode="&#x205f;" horiz-adv-x="419" 
 />
    <glyph glyph-name="Euro" unicode="&#x20ac;" horiz-adv-x="1167" 
d="M51 745l-0.000976562 72.0049h144c2.66699 9.33301 8.16699 27.166 16.5 53.499s13.833 44 16.5 53s7.83398 24.167 15.501 45.5s13.667 37 18 47s10.666 23.667 18.999 41s16.333 31.833 24 43.5s17 24.5 28 38.5s22.5 27.667 34.5 41
c47.333 47.333 105 83.666 173 108.999s139.333 40 214 44c34.667 2.66699 70 0 106 -8s74 -19 114 -33s70.333 -23.333 91 -28l-33 -119c-79.333 22.667 -150.333 35 -213 37s-116 -4.83301 -160 -20.5s-81.667 -40.167 -113 -73.5s-55.666 -72 -72.999 -116
s-30.333 -95.667 -39 -155l500 2l10 -76l-520 -4l-4 -143h520l12 -76h-495c-25.333 -0.666992 -39 -3.83398 -41 -9.50098s0.666992 -22.167 8 -49.5c18.667 -57.333 40.334 -106.833 65.001 -148.5s49.5 -75.334 74.5 -101.001s54 -45.334 87 -59.001
s63.5 -22.667 91.5 -27s61.5 -4.5 100.5 -0.5s72.667 9.16699 101 15.5s63.5 15.5 105.5 27.5l16 -96c-31.333 -26 -75.5 -48 -132.5 -66s-117.833 -29.833 -182.5 -35.5s-129.834 0.833008 -195.501 19.5s-118.834 50 -159.501 94c-20 22 -37.5 42.333 -52.5 61l-39 48
c-11 13.333 -21.167 29.666 -30.5 48.999s-16.5 33.333 -21.5 42s-11 25.167 -18 49.5s-11.667 40.833 -14 49.5s-7.66602 29.834 -15.999 63.501l-17.5 71.5l-120 4l2 74h112l6 145z" />
    <glyph glyph-name="uni25FC" unicode="&#x25fc;" horiz-adv-x="1300" 
d="M0 0v1300h1300v-1300h-1300z" />
    <glyph glyph-name="glyph1" horiz-adv-x="0" 
 />
    <glyph glyph-name="glyph2" horiz-adv-x="682" 
 />
    </font>
</defs>
</svg>
